<?xml version="1.0" encoding="utf-8" ?>
<svg baseProfile="full" height="200mm" version="1.1" viewBox="0,0,200,200" width="200mm" xmlns="http://www.w3.org/2000/svg" xmlns:ev="http://www.w3.org/2001/xml-events" xmlns:xlink="http://www.w3.org/1999/xlink"><defs /><rect fill="#1a1a1a" height="200" width="200" x="0" y="0" /><text alignment-baseline="middle" fill="#e1ed5e" style="dominant-baseline: central; font-size:9.0px; font-family:Arial;" text-anchor="middle" x="100.0" y="100.0">2024</text><line stroke="#e1ed5e" stroke-width="0.3" x1="100.0" x2="100.0" y1="15.0" y2="10.0" /><path d="M 100.0 14.0 a86.0,86.0 0 0,1 42.35913384403234,11.155469271406648" fill="none" id="id49" stroke="none" /><text fill="#e1ed5e" style="font-size:6.75px; font-family:Arial;" text-anchor="middle"><textPath startOffset="22.145653131862478" xlink:href="#id49">January</textPath></text><line stroke="#e1ed5e" stroke-width="0.3" x1="143.13028292997686" x2="145.6673583964461" y1="26.7553504044142" y2="22.446841604673864" /><path d="M 143.63769802327073 25.89364864446614 a86.0,86.0 0 0,1 29.32050498858742,28.57503671076993" fill="none" id="id50" stroke="none" /><text fill="#e1ed5e" style="font-size:6.75px; font-family:Arial;" text-anchor="middle"><textPath startOffset="20.669276256404974" xlink:href="#id50">February</textPath></text><line stroke="#e1ed5e" stroke-width="0.3" x1="172.87174338648825" x2="177.1583165268699" y1="56.24261187166439" y2="53.66864786411523" /><path d="M 173.72905801456457 55.72781907015455 a86.0,86.0 0 0,1 12.242430191666344,42.057860355516425" fill="none" id="id51" stroke="none" /><text fill="#e1ed5e" style="font-size:6.75px; font-family:Arial;" text-anchor="middle"><textPath startOffset="22.145653131862474" xlink:href="#id51">March</textPath></text><line stroke="#e1ed5e" stroke-width="0.3" x1="184.99686870605535" x2="189.99668451229388" y1="99.2704041080226" y2="99.22748670261217" /><path d="M 185.99683186730306 99.26182062694052 a86.0,86.0 0 0,1 -10.086455211305974,41.156179273409016" fill="none" id="id52" stroke="none" /><text fill="#e1ed5e" style="font-size:6.75px; font-family:Arial;" text-anchor="middle"><textPath startOffset="21.40746469413373" xlink:href="#id52">April</textPath></text><line stroke="#e1ed5e" stroke-width="0.3" x1="174.33088141563837" x2="178.70328620479359" y1="141.23008692659167" y2="143.65538615756765" /><path d="M 175.20536237346943 141.71514677278685 a86.0,86.0 0 0,1 -30.301960400862466,31.631185727798858" fill="none" id="id53" stroke="none" /><text fill="#e1ed5e" style="font-size:6.75px; font-family:Arial;" text-anchor="middle"><textPath startOffset="22.145653131862474" xlink:href="#id53">May</textPath></text><line stroke="#e1ed5e" stroke-width="0.3" x1="143.1302829299769" x2="145.66735839644613" y1="173.24464959558577" y2="177.55315839532614" /><path d="M 143.63769802327073 174.10635135553383 a86.0,86.0 0 0,1 -40.68552437913181,11.842963189579606" fill="none" id="id54" stroke="none" /><text fill="#e1ed5e" style="font-size:6.75px; font-family:Arial;" text-anchor="middle"><textPath startOffset="21.407464694133747" xlink:href="#id54">June</textPath></text><line stroke="#e1ed5e" stroke-width="0.3" x1="101.45913802915013" x2="101.54496967792366" y1="184.9874750549273" y2="189.98673829345242" /><path d="M 101.47630435890484 185.9873277026323 a86.0,86.0 0 0,1 -42.54439059252881,-10.42667462771756" fill="none" id="id55" stroke="none" /><text fill="#e1ed5e" style="font-size:6.75px; font-family:Arial;" text-anchor="middle"><textPath startOffset="22.145653131862474" xlink:href="#id55">July</textPath></text><line stroke="#e1ed5e" stroke-width="0.3" x1="58.13341422392154" x2="55.67067388415222" y1="173.97424548756322" y2="178.32567169271397" /><path d="M 57.64086615596768 174.84453072859336 a86.0,86.0 0 0,1 -31.369924170532247,-30.572349798747897" fill="none" id="id56" stroke="none" /><text fill="#e1ed5e" style="font-size:6.75px; font-family:Arial;" text-anchor="middle"><textPath startOffset="22.145653131862474" xlink:href="#id56">August</textPath></text><line stroke="#e1ed5e" stroke-width="0.3" x1="26.387840678322732" x2="22.057713659400548" y1="142.50000000000003" y2="145.00000000000006" /><path d="M 25.521815274538298 143.00000000000003 a86.0,86.0 0 0,1 -11.493303480769221,-40.785679425670985" fill="none" id="id57" stroke="none" /><text fill="#e1ed5e" style="font-size:6.75px; font-family:Arial;" text-anchor="middle"><textPath startOffset="21.40746469413373" xlink:href="#id57">September</textPath></text><path d="M 80.5471966667186 107.91128576633889 l -15.773297042290123 6.414862590288451 a38.02784078022227,38.02784078022227 0 0,0 -0.24073674007142842,-0.6068138458579515 l 15.881092457327675 -6.143147727216935" fill="red" stroke="none" /><path d="M 80.41425534168474 107.57618678355246 l -17.95862320855599 6.946781252235723 a40.255386709004306,40.255386709004306 0 0,0 -0.24377380955092956,-0.6466389919046753 l 18.075227701921357 -6.637473980136902" fill="red" stroke="none" /><path d="M 80.16572619554312 106.89939002012753 l -18.311823146946 6.369802651508725 a40.38806985711045,40.38806985711045 0 0,0 -0.2221624220499949,-0.6567837251154193 l 18.418470990568363 -6.054517251919144" fill="red" stroke="none" /><path d="M 79.64726062577567 105.17358676015961 l -17.35321129712037 4.411118452523083 a38.90508051712406,38.90508051712406 0 0,0 -0.15897815191700826,-0.6486851112487569 l 17.426376975553673 -4.112577516666226" fill="red" stroke="none" /><path d="M 79.48165901384964 104.47187691870673 l -25.08931119158331 5.468098600155978 a46.67827171694262,46.67827171694262 0 0,0 -0.1639125052937887,-0.7843806748256491 l 25.179481407701463 -5.03660147404492" fill="red" stroke="none" /><path d="M 79.2786578344484 103.40968896794605 l -25.47047263919413 4.191156580127829 a46.81299614425039,46.81299614425039 0 0,0 -0.1236721511723832,-0.7940639269418788 l 25.53866628250478 -3.7533044712545" fill="red" stroke="none" /><path d="M 79.13060592940153 102.33845913500099 l -25.438441011434865 2.8504303748416198 a46.59764118847811,46.59764118847811 0 0,0 -0.08225062261212658,-0.7957001620224219 l 25.483624026528656 -2.4133256905362663" fill="red" stroke="none" /><path d="M 79.0935383218832 101.97986365728391 l -26.081086982174547 2.469906053615825 a47.19777727375822,47.19777727375822 0 0,0 -0.0694624910595603,-0.8072594384469172 l 26.11964309593185 -2.021825567793246" fill="red" stroke="none" /><path d="M 79.06263194458094 101.62068470465958 l -25.532999249710688 1.9764156239007415 a46.6093785438875,46.6093785438875 0 0,0 -0.054901495130177946,-0.7982556899708856 l 25.563164706005935 -1.5378165097755125" fill="red" stroke="none" /><path d="M 79.03789590574601 101.26102812881392 l -25.580484268407623 1.5388584116413309 a46.62672941710138,46.62672941710138 0 0,0 -0.041205618419993685,-0.7993779891784496 l 25.60313147628419 -1.0995086290861507" fill="red" stroke="none" /><path d="M 79.01933749520258 100.90099992219065 l -25.534301742343526 1.0965527841546208 a46.557836244046264,46.557836244046264 0 0,0 -0.02743656172712195,-0.7987855587704493 l 25.549362991067497 -0.6580609608200516" fill="red" stroke="none" /><path d="M 79.00696218219943 100.54070618675478 l -25.55038329229313 0.6580872401603663 a46.55885688364708,46.55885688364708 0 0,0 -0.013720603357731856,-0.7991563596507669 l 25.557915327249525 -0.219383964540547" fill="red" stroke="none" /><line stroke="#e1ed5e" stroke-width="0.3" x1="15.003131293944662" x2="10.003315487706104" y1="100.72959589197737" y2="100.7725132973878" /><path d="M 14.003168132696942 100.73817937305945 a86.0,86.0 0 0,1 10.791469493833604,-42.45332614584628" fill="none" id="id58" stroke="none" /><text fill="#e1ed5e" style="font-size:6.75px; font-family:Arial;" text-anchor="middle"><textPath startOffset="22.145653131862435" xlink:href="#id58">October</textPath></text><path d="M 79.00077361379809 100.18025310272382 l -25.591084892305656 0.2196686853634672 a46.592027670673616,46.592027670673616 0 0,0 0.0,-0.79984357617456 l 25.591084892305656 0.2196686853634578" fill="red" stroke="none" /><path d="M 79.00077361379809 99.81974689727619 l -25.559956531252983 -0.2194014858219481 a46.560898162848716,46.560898162848716 0 0,0 0.013721204909920692,-0.7991913970499859 l 25.552423894744397 0.6581397988409863" fill="red" stroke="none" /><path d="M 79.00696218219943 99.45929381324524 l -25.521304707362603 -0.6573382789613885 a46.529768655023815,46.529768655023815 0 0,0 0.02742002147952647,-0.798304007508809 l 25.506259998886225 1.0953485510343361" fill="red" stroke="none" /><path d="M 79.01933749520258 99.09900007780938 l -30.7439478268303 -1.3202774027499244 a51.77228396461783,51.77228396461783 0 0,0 0.04575291907554275,-0.8875944070749032 l 30.716753318298185 1.8478436032015395" fill="red" stroke="none" /><path d="M 79.34024301695615 96.23510406497455 l -25.20499723560735 -4.59319011896164 a46.62009525969607,46.62009525969607 0 0,0 0.1502359381134555,-0.7860979118743291 l 25.122435005211738 5.025190595869284" fill="red" stroke="none" /><path d="M 79.48165901384962 95.52812308129327 l -25.074352740616508 -5.4648384753893895 a46.66296212293037,46.66296212293037 0 0,0 0.17729512118838464,-0.7811950171012784 l 24.97684675787046 5.894467826429676" fill="red" stroke="none" /><path d="M 79.56144815229197 95.17655741523228 l -35.57889438142882 -8.396522197710457 a57.556248582444994,57.556248582444994 0 0,0 0.23519257406201954,-0.9596659618357333 l 35.429514280850505 9.006043984154307" fill="red" stroke="none" /><path d="M 79.64726062577567 94.8264132398404 l -26.743511407908933 -6.798096020202582 a48.59401224767521,48.59401224767521 0 0,0 0.2124495949638373,-0.8067057162041552 l 26.62287233214037 7.256182240779522" fill="red" stroke="none" /><path d="M 79.73907114497095 94.47779374421319 l -34.52032151485104 -9.408667133923913 a56.77954184622363,56.77954184622363 0 0,0 0.26438043909705317,-0.9381929097646132 l 34.35372258367941 9.99986796759154" fill="red" stroke="none" /><path d="M 79.94057633289273 93.78553927170692 l -29.74644907586479 -9.215525962057196 a52.14124518031299,52.14124518031299 0 0,0 0.27221524928911117,-0.852710391276617 l 29.58386911079842 9.724805387025205" fill="red" stroke="none" /><path d="M 80.05021161711548 93.44210830539832 l -36.05690092449785 -11.852619514936984 a58.95503515536402,58.95503515536402 0 0,0 0.32429362057896555,-0.958716466041607 l 35.84812188234652 12.469837655452753" fill="red" stroke="none" /><path d="M 80.16572619554312 93.10060997987247 l -24.55746971301587 -8.542362736743769 a47.00079383080063,47.00079383080063 0 0,0 0.27161944510026886,-0.759767929900193 l 24.40721009787166 8.962665623024883" fill="red" stroke="none" /><path d="M 80.28708602549916 92.7611449362534 l -39.13297336398696 -14.370169867417129 a62.68802449535042,62.68802449535042 0 0,0 0.3796187241951239,-1.006983767345149 l 38.8805239559774 15.039821914956423" fill="red" stroke="none" /><path d="M 80.41425534168474 92.42381321644754 l -49.63799246439951 -19.201041830758175 a74.22227262417782,74.22227262417782 0 0,0 0.4698670128420585,-1.1843718122122917 l 49.30106677659132 20.05031466018405" fill="red" stroke="none" /><path d="M 80.5471966667186 92.08871423366112 l -47.49007085340333 -19.313798384121025 a72.26723746881379,72.26723746881379 0 0,0 0.4772189582699765,-1.1451517743861637 l 47.15152605059688 20.126182667948452" fill="red" stroke="none" /><path d="M 80.68587082218212 91.75594674310238 l -32.94378528475124 -14.061742979497533 a56.81934679065547,56.81934679065547 0 0,0 0.3906089772618119,-0.8937897816910654 l 32.69754242547245 14.625194830964466" fill="red" stroke="none" /><path d="M 80.83023694016515 91.42560881287825 l -44.113032910387716 -19.731198525689987 a69.32473349965979,69.32473349965979 0 0,0 0.49522795213013004,-1.0821624498200066 l 43.767820493402546 20.485549957724665" fill="red" stroke="none" /><path d="M 81.46374523516351 90.13048839642627 l -31.611572600363587 -16.831381880785983 a56.81322295305058,56.81322295305058 0 0,0 0.46574573974797906,-0.8569197031003604 l 31.31798151100026 17.37155641736096" fill="red" stroke="none" /><path d="M 81.63589988554816 89.8137432299009 l -55.092300343355525 -30.558770310297323 a84.0,84.0 0 0,0 0.710266539914524,-1.254972919603579 l 54.55960043841963 31.500000000000007" fill="red" stroke="none" /><line stroke="#e1ed5e" stroke-width="0.3" x1="26.387840678322718" x2="22.05771365940052" y1="57.49999999999999" y2="54.99999999999999" /><path d="M 25.521815274538284 56.99999999999999 a86.0,86.0 0 0,1 29.574782752854787,-30.34633250058573" fill="none" id="id59" stroke="none" /><text fill="#e1ed5e" style="font-size:6.75px; font-family:Arial;" text-anchor="middle"><textPath startOffset="21.40746469413373" xlink:href="#id59">November</textPath></text><path d="M 81.99639281039701 89.18935116829357 l -30.86507662926753 -18.533591690192754 a57.002041279201634,57.002041279201634 0 0,0 0.5109338219134208,-0.8345719999281512 l 30.542374842898717 19.060700806245446" fill="red" stroke="none" /><path d="M 82.18462484594161 88.88188828441811 l -34.67253099192142 -21.63822370826367 a61.870492175096395,61.870492175096395 0 0,0 0.5700402688704745,-0.8961979838364074 l 34.295973031425056 22.230235366778746" fill="red" stroke="none" /><path d="M 82.576782715395 88.27688183743585 l -28.23785674664229 -18.999690234647257 a55.034758448627805,55.034758448627805 0 0,0 0.53412612398669,-0.7793059774491835 l 27.907540885840287 19.481630947166476" fill="red" stroke="none" /><path d="M 82.78059297857968 87.97951657250589 l -42.0832979006636 -29.377410288284114 a72.32286232705829,72.32286232705829 0 0,0 0.7193882843437118,-1.0119097133924677 l 41.572794517789916 30.0954972283861" fill="red" stroke="none" /><path d="M 82.98947788004972 87.6856937992154 l -28.986865565983717 -20.984255266442464 a56.78515536402812,56.78515536402812 0 0,0 0.5783919071421284,-0.7846997054203964 l 28.622371639257768 21.478761281131725" fill="red" stroke="none" /><path d="M 83.2033758604659 87.39550010848427 l -29.529742004959044 -22.159668919537896 a57.91959628033568,57.91959628033568 0 0,0 0.6035994818280149,-0.7901310975165353 l 29.14499054577672 22.663320930295317" fill="red" stroke="none" /><path d="M 83.42222388311158 87.10902102172516 l -27.99644925743998 -21.77020827759479 a56.464674529371734,56.464674529371734 0 0,0 0.6015734845294685,-0.7600684458477133 l 27.61860934226895 22.247596667357186" fill="red" stroke="none" /><path d="M 83.8745106332314 86.54754324733833 l -27.637034359186305 -23.055797007621663 a56.99132456339306,56.99132456339306 0 0,0 0.6331612311223869,-0.7458623382009013 l 27.237178564556803 23.526826128272123" fill="red" stroke="none" /><path d="M 84.10781606972428 86.27271002978789 l -31.02189009251995 -26.795969804553074 a61.992458607393964,61.992458607393964 0 0,0 0.7025485365030801,-0.799371269484451 l 30.557330492058277 27.324553351848827" fill="red" stroke="none" /><path d="M 84.34580500576568 86.00192230759919 l -30.50939861806822 -27.28169237456432 a61.92815831254253,61.92815831254253 0 0,0 0.7154244566310349,-0.786376801755799 l 30.036576460595324 27.801406751877774" fill="red" stroke="none" /><path d="M 84.58840730492382 85.73525988315684 l -37.769213138216685 -34.95861981912157 a72.46473123157178,72.46473123157178 0 0,0 0.852820742083427,-0.9056660745024626 l 37.163536562396985 35.601827353568545" fill="red" stroke="none" /><path d="M 84.83555147118756 85.47280134310135 l -25.82262908076357 -24.737494527869757 a56.75963937400771,56.75963937400771 0 0,0 0.6800702108771878,-0.6978119472756079 l 25.39417206873558 25.177129167213096" fill="red" stroke="none" /><path d="M 85.08716467003674 85.21462403516908 l -18.2662059416972 -18.110085461507406 a46.72215921977772,46.72215921977772 0 0,0 0.5695833461541339,-0.5647151416789654 l 17.95263067541309 18.420980613415047" fill="red" stroke="none" /><path d="M 86.13680546590413 84.22622945171909 l -18.083174667239025 -20.575333288729404 a48.39243592651394,48.39243592651394 0 0,0 0.6286880735721214,-0.5430457843051688 l 17.727307113904054 20.882723205499286" fill="red" stroke="none" /><path d="M 86.40962598614128 83.9905735841838 l -23.720185160160426 -27.94231847511179 a57.65269902472216,57.65269902472216 0 0,0 0.7599879426134176,-0.6340089716359483 l 23.2370228833851 28.34538963065962" fill="red" stroke="none" /><path d="M 86.68645165197937 83.75963576809568 l -16.23579520984802 -19.805030252640403 a46.6093785438875,46.6093785438875 0 0,0 0.6231212914484363,-0.5019424039490239 l 15.89342314804434 20.080820950382826" fill="red" stroke="none" /><path d="M 86.96720088162412 83.53348406188908 l -25.519169112584358 -32.242636528267475 a62.119528237695626,62.119528237695626 0 0,0 0.84183809430468,-0.6546183939435124 l 24.961921073644433 32.6759559738318" fill="red" stroke="none" /><path d="M 87.54013794807813 83.09580414077388 l -24.256823754258296 -32.90904008054115 a61.88273985030619,61.88273985030619 0 0,0 0.8605207222084289,-0.6229506414131014 l 23.688322021675898 33.320591493327335" fill="red" stroke="none" /><path d="M 88.12776184653039 82.6780497279521 l -29.50268299194348 -43.04529618360867 a73.18530278974825,73.18530278974825 0 0,0 1.042380748626641,-0.7013602876507604 l 28.75940595521985 43.54540614531654" fill="red" stroke="none" /><path d="M 88.4268655584334 82.4767994020092 l -21.613990082891753 -32.726335795873375 a60.21960762077568,60.21960762077568 0 0,0 0.8674903107204255,-0.5622967386883843 l 21.049014139914302 33.092546376265666" fill="red" stroke="none" /><path d="M 88.72937992617638 82.28071324371311 l -22.014190851676467 -34.609964478746505 a62.01797459741437,62.01797459741437 0 0,0 0.9032057757951699,-0.5636672049065407 l 21.4168209470916 34.98276748049458" fill="red" stroke="none" /><path d="M 89.03521579738668 82.08984904055464 l -13.473010119421472 -22.007149494055863 a46.80381038784304,46.80381038784304 0 0,0 0.6888345075799607,-0.4136253299788087 l 13.093242855284076 22.235188824570596" fill="red" stroke="none" /><line stroke="#e1ed5e" stroke-width="0.3" x1="56.869717070023135" x2="54.33264160355391" y1="26.7553504044142" y2="22.446841604673864" /><path d="M 56.362301976729285 25.89364864446614 a86.0,86.0 0 0,1 42.16139366436587,-11.88097634709845" fill="none" id="id60" stroke="none" /><text fill="#e1ed5e" style="font-size:6.75px; font-family:Arial;" text-anchor="middle"><textPath startOffset="22.145653131862474" xlink:href="#id60">December</textPath></text><path d="M 89.34428304082924 81.90426304109057 l -20.90972550755853 -35.50928521446238 a62.20832388296666,62.20832388296666 0 0,0 0.9248527275258085,-0.5339639711977823 l 20.29708031217232 35.86299608293634" fill="red" stroke="none" /><path d="M 89.65649057296885 81.72400993836675 l -16.36309140857097 -28.912014637808944 a54.22130868677704,54.22130868677704 0 0,0 0.8139801280613553,-0.4515010557836254 l 15.864367092353511 29.188648609025716" fill="red" stroke="none" /><path d="M 91.26138138417902 80.90454125486306 l -13.904053086322097 -30.382865275682246 a54.41318893173055,54.41318893173055 0 0,0 0.8526976754913103,-0.3814008243706972 l 13.380442007975168 30.61706985096279" fill="red" stroke="none" /><path d="M 91.92203290615298 80.6158196554323 l -20.147870636632312 -48.34755495314927 a73.37769335450216,73.37769335450216 0 0,0 1.1668644449462775,-0.4745536114456402 l 19.314951730495594 48.686295821174205" fill="red" stroke="none" /><path d="M 92.25597844496254 80.48000691201159 l -9.465054631731308 -23.85812070327248 a46.667044681333635,46.667044681333635 0 0,0 0.7471788023484848,-0.2890248119772053 l 9.054103566889294 24.01708540338773" fill="red" stroke="none" /><path d="M 92.592206182469 80.34994680014964 l -14.413911098314491 -38.23461166393461 a61.86130641868904,61.86130641868904 0 0,0 0.9968827230920264,-0.36606914418389475 l 13.755439223568338 38.47641165712722" fill="red" stroke="none" /><path d="M 92.93061703081487 80.22567764915836 l -13.77794406356194 -38.53936169992833 a61.92815831254253,61.92815831254253 0 0,0 1.0041038311097104,-0.34927943517515714 l 13.114334460407225 38.77019956767207" fill="red" stroke="none" /><path d="M 93.27111125876988 80.10723608172694 l -12.715349708553836 -37.59067204376189 a60.68297799954638,60.68297799954638 0 0,0 0.9896447703174186,-0.3253158928461859 l 12.068182200588655 37.80340885801011" fill="red" stroke="none" /><path d="M 93.61358852112211 79.99465700312896 l -12.425598175279768 -38.92300930810716 a61.85824449988659,61.85824449988659 0 0,0 1.0143555203644654,-0.31424993312090094 l 11.755602022043686 39.130575829034704" fill="red" stroke="none" /><path d="M 94.30408787586887 79.78721728523814 l -13.896277849742688 -49.312987735683116 a72.23355636198684,72.23355636198684 0 0,0 1.1963892561586793,-0.3260812118727517 l 13.047707192649332 49.54426944170001" fill="red" stroke="none" /><path d="M 94.6519064749342 79.69241777938228 l -10.411003337631954 -39.53227543369951 a61.88018825130415,61.88018825130415 0 0,0 1.0295528680582293,-0.2617083130252314 l 9.730845176348346 39.70516897856" fill="red" stroke="none" /><path d="M 95.00130118170881 79.60360301121753 l -9.728172768270655 -39.69426464164153 a61.868961215695165,61.868961215695165 0 0,0 1.033706151052393,-0.24395183701244083 l 9.045334463478355 39.8554126223002" fill="red" stroke="none" /><path d="M 95.35216902796891 79.52079915486377 l -7.341082085137532 -32.34616218766341 a54.168745747334995,54.168745747334995 0 0,0 0.9085841950864136,-0.19802169646421347 l 6.784735473432 32.46741534226133" fill="red" stroke="none" /><path d="M 95.70440661134978 79.44403061299748 l -8.360456778919353 -40.00781220655198 a61.87202313449762,61.87202313449762 0 0,0 1.041522744064458,-0.2083337183585443 l 7.672437549323918 40.145435321573395" fill="red" stroke="none" /><path d="M 96.05791012581881 79.37332000966035 l -4.801320622443405 -25.122538341602155 a46.57722839646178,46.57722839646178 0 0,0 0.7866345295088215,-0.14335101545139892 l 4.369351359383544 25.201257530984915" fill="red" stroke="none" /><path d="M 96.76829788921471 79.25015418208739 l -6.285499873768238 -40.357418102966044 a61.84395554547517,61.84395554547517 0 0,0 1.0503898244278755,-0.15437113203072825 l 5.591784943732678 40.459370308295654" fill="red" stroke="none" /><path d="M 97.12497278360702 79.19773525538626 l -5.597933140482245 -40.50385559725474 a61.88886368791108,61.88886368791108 0 0,0 1.0536495879240817,-0.13641603395641705 l 4.901805730667369 40.59398322741155" fill="red" stroke="none" /><path d="M 97.48249496171623 79.15144685158666 l -3.0643933034936914 -25.377572510871207 a46.56191880244953,46.56191880244953 0 0,0 0.7943554218807797,-0.08900918188859575 l 2.628301980012113 25.426437453266775" fill="red" stroke="none" /><path d="M 97.84075906011542 79.11130261209362 l -5.256603960024226 -50.85287490653355 a72.12383760489907,72.12383760489907 0 0,0 1.232632228892691,-0.11673155363903502 l 4.382872167746519 50.93561821567777" fill="red" stroke="none" /><path d="M 98.1996594967304 79.07731436759882 l -3.5044602353846246 -40.727140051030354 a61.87763665230211,61.87763665230211 0 0,0 1.059082911565277,-0.08197971546360751 l 2.8048083290441306 40.78129753348902" fill="red" stroke="none" /><path d="M 98.5590905019552 79.04949213459386 l -1.7531540213550416 -25.490474706083848 a46.55069176684056,46.55069176684056 0 0,0 0.797691873544641,-0.047987162268780734 l 1.315317795677917 25.516813846177325" fill="red" stroke="none" /><path d="M 98.9189461498227 79.02784411241856 l -2.123796368059236 -41.201082163587785 a62.25578362440463,62.25578362440463 0 0,0 1.0677585483390408,-0.04585414634794759 l 1.416212059119375 41.23146887836156" fill="red" stroke="none" /><path d="M 99.63950707515114 79.00309439819443 l -0.701228412559982 -40.84303954092591 a61.84905874347925,61.84905874347925 0 0,0 1.0617213374088241,-0.009113600747777187 l 1.0005133807676813e-14 40.84905874347925" fill="red" stroke="none" /></svg>