<?xml version="1.0" encoding="utf-8" ?>
<svg baseProfile="full" height="200mm" version="1.1" viewBox="0,0,200,200" width="200mm" xmlns="http://www.w3.org/2000/svg" xmlns:ev="http://www.w3.org/2001/xml-events" xmlns:xlink="http://www.w3.org/1999/xlink"><defs /><rect fill="#1a1a1a" height="200" width="200" x="0" y="0" /><text alignment-baseline="middle" fill="#e1ed5e" style="dominant-baseline: central; font-size:9.0px; font-family:Arial;" text-anchor="middle" x="100.0" y="100.0">2021</text><line stroke="#e1ed5e" stroke-width="0.3" x1="100.0" x2="100.0" y1="15.0" y2="10.0" /><path d="M 100.0 14.0 a86.0,86.0 0 0,1 42.46469731375804,11.215312516191453" fill="none" id="id13" stroke="none" /><text fill="#e1ed5e" style="font-size:6.75px; font-family:Arial;" text-anchor="middle"><textPath startOffset="22.20632615414155" xlink:href="#id13">January</textPath></text><path d="M 100.36148047927253 79.00311137660856 l 1.084441437817585 -62.990665870174325 a84.0,84.0 0 0,0 1.4454934592205289,0.03733283143056143 l -2.1685615322329816 62.9626662466014" fill="red" stroke="none" /><path d="M 101.44485096284872 79.0497635885617 l 4.168525484191651 -60.44332365515019 a81.58689610133196,81.58689610133196 0 0,0 1.4002246559235902,0.10868438225198798 l -5.208340329477582 60.362614010709734" fill="red" stroke="none" /><path d="M 103.2404852339499 79.25152402106235 l 7.419359240521391 -47.50535363292662 a69.08123870419027,69.08123870419027 0 0,0 1.1732981071206383,0.19360424088102085 l -8.235986553780904 47.37060312910597" fill="red" stroke="none" /><path d="M 104.307194497241 79.44645832069477 l 12.458241016077032 -59.44959674767191 a81.74094436766246,81.74094436766246 0 0,0 1.374638535142938,0.3004427408609485 l -13.479722275373499 59.22634050871509" fill="red" stroke="none" /><path d="M 105.36241919743992 79.69619591428918 l 15.558288488734396 -58.90856901583588 a81.92848138754309,81.92848138754309 0 0,0 1.360411161549152,0.37185176028073097 l -16.56999753950726 58.632030714728856" fill="red" stroke="none" /><path d="M 107.08798089147638 80.2323363322302 l 12.961888176129397 -36.14939852237633 a59.40298892820801,59.40298892820801 0 0,0 0.9595497022087672,0.353410253296542 l -13.58222020411074 35.92092500127347" fill="red" stroke="none" /><path d="M 107.76421540070413 80.48803036053334 l 18.90495592608002 -47.50936276596289 a72.13254256337044,72.13254256337044 0 0,0 1.1497107392172519,0.46899587804418313 l -19.719950534885662 47.17690600173513" fill="red" stroke="none" /><path d="M 109.08828744355905 81.06846463323043 l 21.549605889020405 -44.889329102048286 a70.79394924289599,70.79394924289599 0 0,0 1.0940319357678494,0.5368367195527526 l -22.319109091798687 44.5117372223607" fill="red" stroke="none" /><path d="M 110.05341064243156 81.56283822128135 l 29.0155328767303 -53.21219760845439 a81.60890299652202,81.60890299652202 0 0,0 1.2275374558980152,0.6831232651806411 l -29.92719442170035 52.70485894571357" fill="red" stroke="none" /><line stroke="#e1ed5e" stroke-width="0.3" x1="143.23703022742887" x2="145.7803849466894" y1="26.81831364943548" y2="22.513508569990506" /><path d="M 143.74570117128098 25.957352633546492 a86.0,86.0 0 0,1 28.547481713284135,27.462654790039103" fill="none" id="id14" stroke="none" /><text fill="#e1ed5e" style="font-size:6.75px; font-family:Arial;" text-anchor="middle"><textPath startOffset="19.985693538727396" xlink:href="#id14">February</textPath></text><path d="M 112.77801427241765 83.33499621200491 l 29.18354616675457 -38.060992658765954 a68.96163601293988,68.96163601293988 0 0,0 0.9358010098396613,0.7304075316095145 l -29.834379731753664 37.55300673793322" fill="red" stroke="none" /><line stroke="#e1ed5e" stroke-width="0.3" x1="172.23445277983987" x2="176.4835382374775" y1="55.19839476539836" y2="52.563006222186495" /><path d="M 173.08426987136738 54.67131705675599 a86.0,86.0 0 0,1 12.851231095245387,41.99856678651699" fill="none" id="id15" stroke="none" /><text fill="#e1ed5e" style="font-size:6.75px; font-family:Arial;" text-anchor="middle"><textPath startOffset="22.20632615414155" xlink:href="#id15">March</textPath></text><line stroke="#e1ed5e" stroke-width="0.3" x1="184.98032266829074" x2="189.97916517819016" y1="98.17113171792111" y2="98.06355123074" /><path d="M 185.9800911702706 98.14961562048488 a86.0,86.0 0 0,1 -9.607161424134198,41.387399972396054" fill="none" id="id16" stroke="none" /><text fill="#e1ed5e" style="font-size:6.75px; font-family:Arial;" text-anchor="middle"><textPath startOffset="21.466115282336823" xlink:href="#id16">April</textPath></text><line stroke="#e1ed5e" stroke-width="0.3" x1="174.80103733775053" x2="179.2010983576182" y1="140.37084112569926" y2="142.7455964860345" /><path d="M 175.68104954172406 140.8457921977663 a86.0,86.0 0 0,1 -30.038265399797805,32.042727171017184" fill="none" id="id17" stroke="none" /><text fill="#e1ed5e" style="font-size:6.75px; font-family:Arial;" text-anchor="middle"><textPath startOffset="22.206326154141568" xlink:href="#id17">May</textPath></text><line stroke="#e1ed5e" stroke-width="0.3" x1="143.8653032363475" x2="146.44561519142675" y1="172.8068346515853" y2="177.08958963109032" /><path d="M 144.38136562736335 173.6633856474863 a86.0,86.0 0 0,1 -40.68145358897372,12.25698825130547" fill="none" id="id18" stroke="none" /><text fill="#e1ed5e" style="font-size:6.75px; font-family:Arial;" text-anchor="middle"><textPath startOffset="21.466115282336833" xlink:href="#id18">June</textPath></text><line stroke="#e1ed5e" stroke-width="0.3" x1="102.19456741930631" x2="102.32365962044197" y1="184.97166512339345" y2="189.96999836594603" /><path d="M 102.22038585953345 185.97133177190398 a86.0,86.0 0 0,1 -42.740103519485714,-10.115201625700543" fill="none" id="id19" stroke="none" /><text fill="#e1ed5e" style="font-size:6.75px; font-family:Arial;" text-anchor="middle"><textPath startOffset="22.20632615414155" xlink:href="#id19">July</textPath></text><line stroke="#e1ed5e" stroke-width="0.3" x1="58.666819895761336" x2="56.23545636021788" y1="174.27360380694188" y2="178.64263932499728" /><path d="M 58.180547188652646 175.14741091055294 a86.0,86.0 0 0,1 -31.652253787137756,-30.449443065178592" fill="none" id="id20" stroke="none" /><text fill="#e1ed5e" style="font-size:6.75px; font-family:Arial;" text-anchor="middle"><textPath startOffset="22.20632615414155" xlink:href="#id20">August</textPath></text><line stroke="#e1ed5e" stroke-width="0.3" x1="26.63291911575756" x2="22.317208475507996" y1="142.92168965132927" y2="145.44649492493687" /><path d="M 25.769776987707644 143.4266507060508 a86.0,86.0 0 0,1 -11.730757126820373,-40.83630448921669" fill="none" id="id21" stroke="none" /><text fill="#e1ed5e" style="font-size:6.75px; font-family:Arial;" text-anchor="middle"><textPath startOffset="21.46611528233685" xlink:href="#id21">September</textPath></text><line stroke="#e1ed5e" stroke-width="0.3" x1="15.007084014347285" x2="10.007500721073583" y1="101.09737516637583" y2="101.16192664675087" /><path d="M 14.007167355692545 101.11028546245083 a86.0,86.0 0 0,1 10.666146001902534,-42.60595125391555" fill="none" id="id22" stroke="none" /><text fill="#e1ed5e" style="font-size:6.75px; font-family:Arial;" text-anchor="middle"><textPath startOffset="22.20632615414155" xlink:href="#id22">October</textPath></text><line stroke="#e1ed5e" stroke-width="0.3" x1="26.266209847984243" x2="21.928928074336255" y1="57.711370442889674" y2="55.22380399835377" /><path d="M 25.398753493254645 57.213857153982495 a86.0,86.0 0 0,1 29.58750427330803,-30.492523968695096" fill="none" id="id23" stroke="none" /><text fill="#e1ed5e" style="font-size:6.75px; font-family:Arial;" text-anchor="middle"><textPath startOffset="21.46611528233685" xlink:href="#id23">November</textPath></text><line stroke="#e1ed5e" stroke-width="0.3" x1="56.762969772571076" x2="54.21961505331055" y1="26.818313649435495" y2="22.513508569990535" /><path d="M 56.25429882871897 25.957352633546506 a86.0,86.0 0 0,1 42.265352541879196,-11.944610805530505" fill="none" id="id24" stroke="none" /><text fill="#e1ed5e" style="font-size:6.75px; font-family:Arial;" text-anchor="middle"><textPath startOffset="22.20632615414155" xlink:href="#id24">December</textPath></text><path d="M 92.23578459929587 80.48803036053334 l -12.417697659379884 -31.206468035382287 a54.58634934617195,54.58634934617195 0 0,0 0.8760246995651837,-0.3398839735710099 l 11.878689794815024 31.41559471284385" fill="red" stroke="none" /><path d="M 93.59665428221793 80.00007090966166 l -10.74884480967729 -33.57247031026435 a56.2512188083775,56.2512188083775 0 0,0 0.9247020731191088,-0.28730943533714903 l 10.169357363847453 33.75251988048402" fill="red" stroke="none" /><path d="M 95.33964822691252 79.52364482259891 l -7.462451713016716 -32.788042450431355 a54.62653585043209,54.62653585043209 0 0,0 0.9186551709461249,-0.2007824387350238 l 6.89695381791707 32.91163838726225" fill="red" stroke="none" /><path d="M 97.11714578562143 79.19881850522333 l -4.964159105326728 -35.81879860723669 a57.16115608341054,57.16115608341054 0 0,0 0.9757825027317212,-0.12668457399992547 l 4.346861874087149 35.898941504400746" fill="red" stroke="none" /></svg>