<?xml version="1.0" encoding="utf-8" ?>
<svg baseProfile="full" height="200mm" version="1.1" viewBox="0,0,200,200" width="200mm" xmlns="http://www.w3.org/2000/svg" xmlns:ev="http://www.w3.org/2001/xml-events" xmlns:xlink="http://www.w3.org/1999/xlink"><defs /><rect fill="#1a1a1a" height="200" width="200" x="0" y="0" /><text alignment-baseline="middle" fill="#e1ed5e" style="dominant-baseline: central; font-size:9.0px; font-family:Arial;" text-anchor="middle" x="100.0" y="100.0">2025</text><line stroke="#e1ed5e" stroke-width="0.3" x1="100.0" x2="100.0" y1="15.0" y2="10.0" /><path d="M 100.0 14.0 a86.0,86.0 0 0,1 42.46469731375804,11.215312516191453" fill="none" id="id61" stroke="none" /><text fill="#e1ed5e" style="font-size:6.75px; font-family:Arial;" text-anchor="middle"><textPath startOffset="22.20632615414155" xlink:href="#id61">January</textPath></text><path d="M 100.72285384407766 79.0124445844662 l 0.940670479873235 -27.31170897940919 a48.32790347479377,48.32790347479377 0 0,0 0.8311459710154881,0.03579089387391956 l -1.4106572832780546 27.291470359011075" fill="#ecff1a" stroke="none" /><path d="M 101.08401301168833 79.027996857942 l 0.7929672884135724 -15.341248015332932 a36.36172802091127,36.36172802091127 0 0,0 0.6247948304627093,0.03768933041418211 l -1.0569241677158938 15.325325415538444" fill="#ff5f08" stroke="none" /><path d="M 101.44485096284872 79.0497635885617 l 1.0279625612713839 -14.90538417767456 a35.94078928676282,35.94078928676282 0 0,0 0.6168291933814374,0.04787781700175396 l -1.2843819440151625 14.885481098484341" fill="#ff5908" stroke="none" /><path d="M 102.16513564639614 79.11191278185805 l 3.078257803719964 -29.69740837764794 a50.85651914498669,50.85651914498669 0 0,0 0.8699692866892541,0.09775118595673919 l -3.5889937939189434 29.640021238220598" fill="#caff1d" stroke="none" /><path d="M 103.2404852339499 79.25152402106235 l 1.477198344603394 -9.458341006470329 a30.573000028412054,30.573000028412054 0 0,0 0.5192617233738057,0.08568263356281003 l -1.639789274116075 9.431512109967896" fill="#ff0000" stroke="none" /><path d="M 103.59715602781102 79.31037775812273 l 2.566102346256126 -14.759350933782535 a35.98076504181307,35.98076504181307 0 0,0 0.6092826473961388,0.11134250937497127 l -2.8197801147551655 14.712992943056827" fill="#ff5908" stroke="none" /><path d="M 104.307194497241 79.44645832069477 l 6.132701079775934 -29.26469360290927 a50.90037314492987,50.90037314492987 0 0,0 0.8559922437824932,0.1870867499367633 l -6.635536047711955 29.154793354876634" fill="#c9ff1d" stroke="none" /><path d="M 105.36241919743992 79.69619591428918 l 6.175880348648805 -23.38382361371918 a45.18563013192663,45.18563013192663 0 0,0 0.7503011716075957,0.2050856529913136 l -6.5774794094801114 23.274051419901575" fill="#ffe515" stroke="none" /><path d="M 105.71112130821622 79.79150937346287 l 6.583158672825371 -23.29414718286728 a45.20651298904242,45.20651298904242 0 0,0 0.7470048680862226,0.21807120521658732 l -6.98315375863502 23.17737764873199" fill="#ffe515" stroke="none" /><path d="M 106.0581310904928 79.89281104454417 l 11.333241752176704 -37.61550055370983 a60.28572578582997,60.28572578582997 0 0,0 0.9910244932390064,0.3079161341094035 l -11.979051618126428 37.41484428471791" fill="#53ff2b" stroke="none" /><path d="M 106.40334571778207 80.00007090966166 l 9.104614110390834 -28.436952279031683 a50.8589057572285,50.8589057572285 0 0,0 0.8314636184957407,0.27412048242434206 l -9.592760551128992 28.276018072348105" fill="#caff1d" stroke="none" /><path d="M 106.74666289553966 80.11325718540242 l 4.845164496655183 -14.281807425579627 a36.081301082499124,36.081301082499124 0 0,0 0.5864379702984874,0.20459669282574774 l -5.090284471016944 14.196289879581672" fill="#ff5b08" stroke="none" /><path d="M 107.08798089147638 80.2323363322302 l 10.082293515378446 -28.118499508288583 a50.871435471497975,50.871435471497975 0 0,0 0.8217376202500952,0.30265290046716076 l -10.564813461401117 27.9407833400151" fill="#caff1d" stroke="none" /><path d="M 107.4271985657038 80.35727306442388 l 5.275759539568346 -13.952811830294962 a35.916923164344766,35.916923164344766 0 0,0 0.5764098937046485,0.2236380836924146 l -5.515152598272662 13.859931042712" fill="#ff5808" stroke="none" /><path d="M 108.09893153111575 80.62456947434976 l 9.322795300168233 -22.303333711278242 a45.17339874418737,45.17339874418737 0 0,0 0.7148501961194303,0.3060615474689548 l -9.705329254077979 22.139552635846496" fill="#ffe515" stroke="none" /><path d="M 108.43124777332544 80.76684994638697 l 11.99146549340399 -27.354629041627103 a50.86755722660505,50.86755722660505 0 0,0 0.7989061887261287,0.3584459193249737 l -12.460553800596898 27.1441627917856" fill="#caff1d" stroke="none" /><path d="M 109.08828744355905 81.06846463323043 l 12.931372331295371 -26.936948699205495 a50.88008694087452,50.88008694087452 0 0,0 0.786288102348623,0.3858281570107328 l -13.393131700654425 26.71036538205993" fill="#caff1d" stroke="none" /><path d="M 109.41281617654863 81.2277094730956 l 13.383637672651487 -26.69143112810246 a50.8589057572285,50.8589057572285 0 0,0 0.7792056923857205,0.39913942015325504 l -13.841103852625963 26.457099182636707" fill="#caff1d" stroke="none" /><path d="M 110.05341064243156 81.56283822128135 l 19.442379665298493 -35.65579005988748 a61.61208553921336,61.61208553921336 0 0,0 0.9267511258986054,0.5157359981904195 l -20.053254880269133 35.315838664136876" fill="#44ff2d" stroke="none" /><path d="M 110.36928655335952 81.73862282372117 l 7.379016819708094 -12.99520546967017 a35.94407087859531,35.94407087859531 0 0,0 0.5354010866344024,0.3101388671275648 l -7.601614638807825 12.866262445152556" fill="#ff5908" stroke="none" /><line stroke="#e1ed5e" stroke-width="0.3" x1="143.23703022742887" x2="145.7803849466894" y1="26.81831364943548" y2="22.513508569990506" /><path d="M 143.74570117128098 25.957352633546492 a86.0,86.0 0 0,1 28.547481713284135,27.462654790039103" fill="none" id="id62" stroke="none" /><text fill="#e1ed5e" style="font-size:6.75px; font-family:Arial;" text-anchor="middle"><textPath startOffset="19.985693538727396" xlink:href="#id62">February</textPath></text><path d="M 110.68208982089419 81.91981866633111 l 12.16064102160988 -20.582732264083702 a44.906694826165605,44.906694826165605 0 0,0 0.6621341047128108,0.39892838942040404 l -12.513137192540329 20.370357265204685" fill="#ffe115" stroke="none" /><path d="M 110.99172775467656 82.1063720568725 l 12.526097539787266 -20.391455643624017 a44.93145592817433,44.93145592817433 0 0,0 0.6555303596391595,0.4104930510675709 l -12.875247051798688 20.1728182512335" fill="#ffe215" stroke="none" /><path d="M 111.2981086023043 82.29822771554956 l 16.072110273451003 -25.18163404210686 a50.87352375720957,50.87352375720957 0 0,0 0.7341121529991095,0.47748696496865795 l -16.50318945223439 24.901248152978678" fill="#caff1d" stroke="none" /><path d="M 111.60114157652 82.49532879139004 l 8.267333709636656 -12.474372233500324 a35.96525206224133,35.96525206224133 0 0,0 0.5130962229682354,0.3464448601603386 l -8.480834627011435 12.330215461041316" fill="#ff5908" stroke="none" /><path d="M 111.90073688211348 82.69761687909136 l 23.518745464226168 -34.19370990016427 a62.50109859928591,62.50109859928591 0 0,0 0.8811728112885928,0.6173178663522692 l -24.103849415098413 33.78380719104806" fill="#3aff2e" stroke="none" /><path d="M 112.48926042617603 83.11751280151076 l 14.414001547741247 -19.48427595430109 a45.23634564206499,45.23634564206499 0 0,0 0.6220080378124513,0.4684835585013616 l -14.747255739312081 19.23327580629388" fill="#ffe615" stroke="none" /><path d="M 112.77801427241765 83.33499621200491 l 18.171539441708447 -23.699204522212295 a50.86397730824234,50.86397730824234 0 0,0 0.6902179832361208,0.5387260839720305 l -18.576789980104 23.38290004901704" fill="#caff1d" stroke="none" /><path d="M 113.06298171725822 83.55741782278167 l 14.995601297859883 -18.875201081473648 a45.10687192794704,45.10687192794704 0 0,0 0.6037804000158415,0.48821509336715024 l -15.318285096440215 18.61427989084237" fill="#ffe415" stroke="none" /><path d="M 113.34407831869373 83.78471172551755 l 18.978621044157176 -23.06220062063404 a50.86725890007482,50.86725890007482 0 0,0 0.6713084485573807,0.562201519869348 l -19.372787029673674 22.732097943370874" fill="#caff1d" stroke="none" /><path d="M 113.6212207817346 84.01681056812373 l 25.47375592833703 -29.89099678128429 a60.273196071560484,60.273196071560484 0 0,0 0.7838563629772696,0.6797525137250224 l -25.984506089961066 29.448079274139598" fill="#53ff2b" stroke="none" /><path d="M 113.89432698308785 84.25364557470407 l 10.854297348118418 -12.301107731886596 a37.405274223640724,37.405274223640724 0 0,0 0.4791241796246804,0.4301624191554992 l -11.06443251533909 12.1124463039618" fill="#ff700a" stroke="none" /><path d="M 115.19652480421416 85.50635884689758 l 17.490561182215384 -16.681571649270346 a45.170117152354884,45.170117152354884 0 0,0 0.5317870966897441,0.5672733969655778 l -17.77511560087559 16.37802883542671" fill="#ffe515" stroke="none" /><path d="M 115.4437574822437 85.77008943001954 l 21.95918636976065 -20.23324042678705 a50.859502410288954,50.859502410288954 0 0,0 0.5876848426171751,0.6489362815092656 l -22.304214852993862 19.852251358008235" fill="#caff1d" stroke="none" /><path d="M 115.68641384162765 86.03803664274999 l 17.849388605354733 -15.887156374513951 a44.89565674454725,44.89565674454725 0 0,0 0.5088348378675381,0.5816861806782626 l -18.12021530680012 15.57755463763274" fill="#ffe115" stroke="none" /><path d="M 115.9244219780498 86.31012108654704 l 11.1423748701124 -9.578857115843682 a35.69377491973596,35.69377491973596 0 0,0 0.39652280254067257,0.46935792847800667 l -11.30560828614019 9.385640237736569" fill="#ff5507" stroke="none" /><path d="M 116.15771136456269 86.58626213691792 l 30.092970380838857 -24.98244999569532 a60.11150309217816,60.11150309217816 0 0,0 0.6540747190531582,0.8018182668938427 l -30.518543591968424 24.460747559193376" fill="#55ff2b" stroke="none" /><path d="M 116.60985879189232 87.15038557335679 l 23.621491025657356 -18.273909228552192 a50.86487228783301,50.86487228783301 0 0,0 0.5297795888941342,0.6971278389192982 l -23.932546554775602 17.86459661375186" fill="#caff1d" stroke="none" /><path d="M 117.2510076193507 88.02491185347247 l 19.67603964062207 -13.658466465849697 a44.95204045875991,44.95204045875991 0 0,0 0.43576836455584594,0.6394363039937822 l -19.908232470846645 13.317752138585508" fill="#ffe215" stroke="none" /><path d="M 117.65298651832404 88.62581576622439 l 25.102453539353526 -16.17402987194411 a50.861889022530754,50.861889022530754 0 0,0 0.4678625410454145,0.740046182501584 l -25.377143676644895 15.739536041728318" fill="#caff1d" stroke="none" /><line stroke="#e1ed5e" stroke-width="0.3" x1="172.23445277983987" x2="176.4835382374775" y1="55.19839476539836" y2="52.563006222186495" /><path d="M 173.08426987136738 54.67131705675599 a86.0,86.0 0 0,1 12.851231095245387,41.99856678651699" fill="none" id="id63" stroke="none" /><text fill="#e1ed5e" style="font-size:6.75px; font-family:Arial;" text-anchor="middle"><textPath startOffset="22.20632615414155" xlink:href="#id63">March</textPath></text><path d="M 118.03404312379186 89.2402003453031 l 25.64098352164584 -15.298391145483986 a50.85801077763782,50.85801077763782 0 0,0 0.4420779925305529,0.7556545909214514 l -25.90052118864672 14.85475714220864" fill="#caff1d" stroke="none" /><path d="M 118.21658344932153 89.55222093294921 l 13.745637043074979 -7.883551784638598 a36.84591197946756,36.84591197946756 0 0,0 0.31080817889401346,0.5528930693438737 l -13.879302863261424 7.645775205359931" fill="#ff6709" stroke="none" /><path d="M 118.3937258080291 89.86733742301442 l 21.18974145437267 -11.672920564956941 a45.19219331559159,45.19219331559159 0 0,0 0.3694825509924052,0.6845950523145442 l -21.387532104583542 11.306444529309939" fill="#ffe515" stroke="none" /><path d="M 118.89224826269711 90.83032412892265 l 26.86118820197237 -13.037537189812987 a50.85801077763782,50.85801077763782 0 0,0 0.37548180231335226,0.790860435470132 l -27.08162819812748 12.573234338702315" fill="#caff1d" stroke="none" /><path d="M 119.196687751892 91.48605970444005 l 35.74746546393933 -15.8543906433845 a60.10553656157364,60.10553656157364 0 0,0 0.41132019018040705,0.9493837091692953 l -36.015076363962415 15.236707789628603" fill="#55ff2b" stroke="none" /><path d="M 119.34039704204932 91.81776055985345 l 26.113355034111553 -11.047638939888936 a49.35414673877014,49.35414673877014 0 0,0 0.32427628153269455,0.7852607370953468 l -26.299653002530444 10.596503632340285" fill="#deff1b" stroke="none" /><path d="M 119.47837535516314 92.15188598940014 l 15.347182930846198 -6.183597922651501 a37.546084345907246,37.546084345907246 0 0,0 0.23637307272450736,0.6015436876403478 l -15.451349553452406 5.918505230115369" fill="#ff720a" stroke="none" /><path d="M 119.61058180528143 92.48833698450437 l 18.899995607978617 -7.239479145042403 a41.239068463571016,41.239068463571016 0 0,0 0.24821090610774796,0.6650818256702279 l -19.02181110258799 6.913074182342841" fill="#ffab0f" stroke="none" /><path d="M 119.7369772167798 92.82701384747503 l 28.64346833256955 -10.409861624359245 a51.476441674795666,51.476441674795666 0 0,0 0.29549173594143546,0.8353949288515381 l -28.818413149320797 9.915269069081093" fill="#c2ff1e" stroke="none" /><path d="M 119.97218684219823 93.5106431181261 l 37.20235693494408 -12.08777851445019 a60.11687296972223,60.11687296972223 0 0,0 0.3113038223076498,0.9869181881559924 l -37.40491624101994 11.445610159867776" fill="#55ff2b" stroke="none" /><path d="M 120.18372546131832 94.20196356495316 l 18.05714081938434 -5.187147466121141 a39.787411567492825,39.787411567492825 0 0,0 0.18342608593591533,0.6598812245321806 l -18.14375367588662 4.8755549381700085" fill="#ff950d" stroke="none" /><path d="M 120.28053869075195 94.5502522615342 l 23.32562539867779 -6.26801764011878 a45.15311254013202,45.15311254013202 0 0,0 0.19524134505319152,0.7523445464470105 l -23.430063075601286 5.865576668122919" fill="#ffe515" stroke="none" /><path d="M 120.37134235888165 94.90015583598534 l 19.48964980965693 -4.879117688439097 a41.09109850457908,41.09109850457908 0 0,0 0.16586558830666662,0.6876199458022467 l -19.57074819822442 4.542912510977444" fill="#ffa90f" stroke="none" /><path d="M 120.45610955862082 95.25157060432595 l 29.087898489137753 -6.752106594286197 a50.861292369470306,50.861292369470306 0 0,0 0.19062234256227376,0.8545225844214747 l -29.199815218702064 6.250405840314758" fill="#caff1d" stroke="none" /><path d="M 120.6074358757038 95.95851677861258 l 44.22804738982629 -8.673903561745592 a66.07057553343626,66.07057553343626 0 0,0 0.20926840487930834,1.1179201867474062 l -44.37080151861546 7.911305297535622" fill="#33ff54" stroke="none" /><path d="M 120.73433829027371 96.67025291283417 l 32.72243002599354 -5.254926129721275 a54.14169089583196,54.14169089583196 0 0,0 0.13985084049190455,0.9214423039411365 l -32.80803675992474 4.690884713388057" fill="#9fff22" stroke="none" /><path d="M 120.78858239683441 97.02765380044208 l 30.952226233519887 -4.425541398487518 a52.267006979893736,52.267006979893736 0 0,0 0.11967651489834727,0.8917290436225757 l -31.023818747476074 3.8920940128002774" fill="#b7ff1f" stroke="none" /><path d="M 120.83666639777658 97.38593545837742 l 29.61601321771694 -3.7154777323171273 a50.84816600214038,50.84816600214038 0 0,0 0.10147755655069596,0.8693977332269449 l -29.675581127271226 3.2051362607653298" fill="#caff1d" stroke="none" /><path d="M 120.87857604477298 97.74499172005257 l 31.11973421275361 -3.361113237274209 a52.30071787780925,52.30071787780925 0 0,0 0.08896818911800931,0.8958975229700954 l -31.172979527553846 2.824940183599679" fill="#b7ff1f" stroke="none" /><path d="M 120.91429891909075 98.10471618934814 l 21.865146942664197 -1.981451024405516 a42.95474433889894,42.95474433889894 0 0,0 0.060393380905125096,0.7369522178668414 l -21.896014807388816 1.6047848893309058" fill="#ffc512" stroke="none" /><path d="M 120.94382443527127 98.46500227214037 l 47.93511395965947 -3.513221343130346 a69.06368561119056,69.06368561119056 0 0,0 0.07669163483380077,1.1863856463578604 l -47.988486185497685 2.68757663251945" fill="#37ff7c" stroke="none" /><path d="M 120.98425023603335 99.18683210126433 l 24.087003428222605 -0.93340375492344 a45.10508196876569,45.10508196876569 0 0,0 0.02338656733709978,0.7760863151503542 l -24.09950169001535 0.5186472923480867" fill="#ffe415" stroke="none" /><line stroke="#e1ed5e" stroke-width="0.3" x1="184.98032266829074" x2="189.97916517819016" y1="98.17113171792111" y2="98.06355123074" /><path d="M 185.9800911702706 98.14961562048488 a86.0,86.0 0 0,1 -9.607161424134198,41.387399972396054" fill="none" id="id64" stroke="none" /><text fill="#e1ed5e" style="font-size:6.75px; font-family:Arial;" text-anchor="middle"><textPath startOffset="21.466115282336823" xlink:href="#id64">April</textPath></text><path d="M 120.99513854157772 99.54816195383933 l 29.891661722936952 -0.6433008290295615 a50.89858318574852,50.89858318574852 0 0,0 0.011311586926011965,0.8760948732257845 l -29.89830631698068 0.12866969774331433" fill="#c9ff1d" stroke="none" /><path d="M 120.99824983174949 100.27111621757518 l 44.78074799210718 0.578180901412589 a65.78448039094982,65.78448039094982 0 0,0 -0.02436512213238876,1.1321514845830836 l -44.764160807289784 -1.3489222017857874" fill="#33ff50" stroke="none" /><path d="M 120.9904718944345 100.63252640178507 l 30.554158614958446 0.9207183195063962 a51.56802791957496,51.56802791957496 0 0,0 -0.03437344780684071,0.8870259529127361 l -30.533783034300402 -1.4465215194331384" fill="#c0ff1e" stroke="none" /><path d="M 120.9764740272857 100.99374915477107 l 16.949207157809383 0.8029595567493101 a37.96821638617659,37.96821638617659 0 0,0 -0.03654648587888257,0.6525620559079988 l -16.93287432104297 -1.094593328992732" fill="#ff790b" stroke="none" /><path d="M 120.95626037817324 101.35467743843564 l 33.09290603620269 2.1392277233874624 a54.1619770998873,54.1619770998873 0 0,0 -0.06814980116773135,0.9298498916645773 l -33.051179676370616 -2.70855075154881" fill="#9fff22" stroke="none" /><path d="M 120.92983693683757 101.71520430193887 l 28.791038416897447 2.3594313275816337 a49.88755457481367,49.88755457481367 0 0,0 -0.07750483851203491,0.8552594346062774 l -28.746158982108337 -2.854672150736482" fill="#d7ff1c" stroke="none" /><path d="M 120.89721153311464 102.0752229133903 l 17.155310592139752 1.703628906216538 a38.23969352868197,38.23969352868197 0 0,0 -0.07068461400421686,0.6544517382955543 l -17.123443676634484 -1.9986769663968835" fill="#ff7d0b" stroke="none" /><path d="M 120.8583938346157 102.4346265915055 l 29.97402693558589 3.4986185230989673 a51.17751849150953,51.17751849150953 0 0,0 -0.10966243298140242,0.8741174886920482 l -29.90936299335764 -4.01405376607841" fill="#c6ff1e" stroke="none" /><path d="M 120.81339534386255 102.79330883721812 l 24.217015961563963 3.250099446961981 a45.43413613160462,45.43413613160462 0 0,0 -0.11069908054354625,0.7742291114930095 l -24.157482830003815 -3.6664740304353995" fill="#ffe915" stroke="none" /><path d="M 120.70491114924044 103.5080841355445 l 30.669403330810514 5.196392609266472 a52.106507306632324,52.106507306632324 0 0,0 -0.15744491742308947,0.883034710248238 l -30.575411971048233 -5.723546070247928" fill="#b9ff1f" stroke="none" /><path d="M 120.64145759157962 103.86396538481128 l 44.01369699846933 8.239117848394297 a65.77821553381507,65.77821553381507 0 0,0 -0.21791404111565363,1.1111390008850937 l -43.86535302437801 -8.995520576347335" fill="#33ff50" stroke="none" /><path d="M 120.5718875245553 104.21870165774334 l 33.90419059825692 6.952773045768655 a55.609755751072555,55.609755751072555 0 0,0 -0.20036979167637306,0.9360609601736365 l -33.7794867678561 -7.5353478253584605" fill="#8cff24" stroke="none" /><path d="M 120.41448212921028 104.9243191809786 l 37.75506592268187 9.107161970871214 a59.83793766396121,59.83793766396121 0 0,0 -0.25014732870539197,0.9992142326964389 l -37.59270727968142 -9.755704042965048" fill="#59ff2a" stroke="none" /><path d="M 120.32669344350535 105.2749913415812 l 34.66986317136765 8.997195168563097 a56.818276525016806,56.818276525016806 0 0,0 -0.2538205628455556,0.9445607379153462 l -34.50985453218031 -9.592646839653991" fill="#7dff26" stroke="none" /><path d="M 119.26925614724726 108.34839909993367 l 22.005921568684354 9.534058523761963 a44.98246976484293,44.98246976484293 0 0,0 -0.3139324749925569,0.7078348553552251 l -21.838548008960526 -9.911441715609875" fill="#ffe215" stroke="none" /><path d="M 119.12269723197855 108.67885076344098 l 27.569706702144256 12.512532471602182 a51.27626457301424,51.27626457301424 0 0,0 -0.3716928105547273,0.8005932465901329 l -27.350239274749697 -12.985245785471145" fill="#c4ff1e" stroke="none" /><path d="M 118.97047184881838 109.00673069616215 l 26.987499001967834 12.81302529587894 a50.874717063330465,50.874717063330465 0 0,0 -0.38240040043307333,0.787858088149377 l -26.762945344920045 -13.275672339993593" fill="#caff1d" stroke="none" /><path d="M 118.81262510543309 109.33194174019688 l 27.22823216895322 13.50647636176219 a51.39410355245339,51.39410355245339 0 0,0 -0.39994727465162705,0.7891339158954377 l -26.991706224515323 -13.97316448936032" fill="#c3ff1e" stroke="none" /><path d="M 118.64920377521936 109.65438752849418 l 29.58034760885935 15.313261760964128 a54.309052079288556,54.309052079288556 0 0,0 -0.43692276807045033,0.826493218545037 l -29.312372332564006 -15.820169994595298" fill="#9dff22" stroke="none" /><line stroke="#e1ed5e" stroke-width="0.3" x1="174.80103733775053" x2="179.2010983576182" y1="140.37084112569926" y2="142.7455964860345" /><path d="M 175.68104954172406 140.8457921977663 a86.0,86.0 0 0,1 -30.038265399797805,32.042727171017184" fill="none" id="id65" stroke="none" /><text fill="#e1ed5e" style="font-size:6.75px; font-family:Arial;" text-anchor="middle"><textPath startOffset="22.206326154141568" xlink:href="#id65">May</textPath></text><path d="M 118.30583269289576 110.29060199501025 l 15.840355732931458 8.904637065225506 a39.17166560910701,39.17166560910701 0 0,0 -0.3354736127230657,0.584926520937634 l -15.684730124056014 -9.175983432021455" fill="#ff8b0c" stroke="none" /><path d="M 117.94076556474637 110.91462005526583 l 38.89167993992798 23.660523756546763 a66.52343520631885,66.52343520631885 0 0,0 -0.6035746046457564,0.9731544450269368 l -38.47864069561427 -24.326474532938974" fill="#34ff5a" stroke="none" /><path d="M 117.75023020441432 111.22182372390056 l 27.87101678579745 17.620258090980176 a53.97373305931489,53.97373305931489 0 0,0 -0.5032283065904368,0.78102150706339 l -27.563583615829963 -18.09740119796502" fill="#a1ff22" stroke="none" /><path d="M 117.35343817320211 111.8261652097733 l 29.824152090972785 20.324810930776355 a57.09124530017331,57.09124530017331 0 0,0 -0.5604160721505563,0.8073211497386056 l -29.469875111660095 -20.835173342701978" fill="#7aff26" stroke="none" /><path d="M 117.14729908036423 112.12312394758627 l 24.379714750496177 17.236434866031644 a50.85741412457737,50.85741412457737 0 0,0 -0.5115292176491991,0.7104693437050466 l -24.079405740471373 -17.65353781518782" fill="#caff1d" stroke="none" /><path d="M 116.71984013943494 112.70617746262583 l 47.530384184841964 36.120530536352156 a80.69782363693189,80.69782363693189 0 0,0 -0.849990878753712,1.0987277907126922 l -46.90158648887018 -36.933336321178096" fill="#48f6ff" stroke="none" /><path d="M 116.498646956653 112.99209946851258 l 11.73236943302587 9.238824921563804 a35.93333112350718,35.93333112350718 0 0,0 -0.3868515489155621,0.48265678841703596 l -11.571599972055454 -9.43940954355909" fill="#ff5808" stroke="none" /><path d="M 116.27256486870786 113.27417163493432 l 30.092817579204976 24.547895721914863 a59.835252725189186,59.835252725189186 0 0,0 -0.6579142476965211,0.7925000939649505 l -29.665807331614914 -25.062257072993585" fill="#59ff2a" stroke="none" /><path d="M 115.80600337817218 113.82643327865902 l 19.10704786666485 16.71404947599955 a46.385797763024556,46.385797763024556 0 0,0 -0.5308769521116599,0.5964458834853792 l -18.81651206490485 -17.040469529225795" fill="#fff617" stroke="none" /><path d="M 114.81725581225074 114.88116024355365 l 10.306011921084705 10.35046008605959 a35.60636524637984,35.60636524637984 0 0,0 -0.4380431503393855,0.4287174184689739 l -10.126318818369526 -10.526327607451135" fill="#ff5307" stroke="none" /><path d="M 114.55890576462653 115.13401014063108 l 25.51900180561107 26.52705075152382 a57.80901893189632,57.80901893189632 0 0,0 -0.7230646534491691,0.6837027612563016 l -25.058601317771092 -26.962388149526046" fill="#71ff27" stroke="none" /><path d="M 114.29624159901734 115.38237550388516 l 9.821566314603965 10.567743979503827 a35.4270710017142,35.4270710017142 0 0,0 -0.4502619624489009,0.41130362708898244 l -9.638204802688199 -10.735240373179392" fill="#ff5007" stroke="none" /><path d="M 114.0293411484842 115.62618273729858 l 16.08998242619155 17.921369433571513 a45.08449743818011,45.08449743818011 0 0,0 -0.5819284664753369,0.5134842120018672 l -15.779111606809625 -18.19567678734567" fill="#ffe415" stroke="none" /><path d="M 113.75828350139079 115.86535959552629 l 19.555997509425566 22.550991386744524 a50.849359308261285,50.849359308261285 0 0,0 -0.6662102018876646,0.5677587871703352 l -19.164921830960854 -22.884274564137808" fill="#caff1d" stroke="none" /><path d="M 113.20401910651253 116.32954008644616 l 18.840009021380233 23.299624157003556 a50.96361836933771,50.96361836933771 0 0,0 -0.6868985868311147,0.5457137805166398 l -18.436152941831768 -23.62047185152532" fill="#c9ff1d" stroke="none" /><path d="M 112.92097659922987 116.55440617244103 l 21.51585080877642 27.566192903356708 a55.968940893464286,55.968940893464286 0 0,0 -0.7645657732847903,0.5862364321976833 l -21.038156306998136 -27.932468677381763" fill="#88ff25" stroke="none" /><path d="M 112.63410532772338 116.77436683061366 l 19.77928064615299 26.261052967176276 a53.87647861046131,53.87647861046131 0 0,0 -0.7455864011963239,0.5515669951516102 l -19.324309274538102 -26.597629911067656" fill="#a2ff22" stroke="none" /><path d="M 112.04921762599082 117.19931262002967 l 22.824862310530637 32.58069980752527 a60.78035117294415,60.78035117294415 0 0,0 -0.862048054622137,0.5929245125429388 l -22.260657371285618 -32.9687651094333" fill="#4eff2c" stroke="none" /><path d="M 111.7513745106137 117.40417183066458 l 14.116807594065428 20.90745596148261 a46.227088048944495,46.227088048944495 0 0,0 -0.6633043444153526,0.43960195059809903 l -13.754828550910112 -21.14735593317203" fill="#fff417" stroke="none" /><path d="M 111.1453310114006 117.79835938074945 l 33.4359930342018 53.39507814224836 a84.0,84.0 0 0,0 -1.2320832002707651,0.7568461326864875 l -32.51193063399873 -53.96271274176323" fill="#4dd2ff" stroke="none" /><line stroke="#e1ed5e" stroke-width="0.3" x1="143.8653032363475" x2="146.44561519142675" y1="172.8068346515853" y2="177.08958963109032" /><path d="M 144.38136562736335 173.6633856474863 a86.0,86.0 0 0,1 -40.68145358897372,12.25698825130547" fill="none" id="id66" stroke="none" /><text fill="#e1ed5e" style="font-size:6.75px; font-family:Arial;" text-anchor="middle"><textPath startOffset="21.466115282336833" xlink:href="#id66">June</textPath></text><path d="M 110.5260780823613 118.17145234162733 l 14.966083468066701 25.8363533267448 a50.85801077763782,50.85801077763782 0 0,0 -0.7612989714231141,0.4322854246567151 l -14.519135729722388 -26.090141917196142" fill="#caff1d" stroke="none" /><path d="M 110.21172684928248 118.3499491758327 l 7.275888020424901 13.07439744074509 a35.9625671234693,35.9625671234693 0 0,0 -0.5435094491253174,0.2963646870206239 l -7.049755759430935 -13.197702779525484" fill="#ff5908" stroke="none" /><line stroke="#e1ed5e" stroke-width="0.3" x1="102.19456741930631" x2="102.32365962044197" y1="184.97166512339345" y2="189.96999836594603" /><path d="M 102.22038585953345 185.97133177190398 a86.0,86.0 0 0,1 -42.740103519485714,-10.115201625700543" fill="none" id="id67" stroke="none" /><text fill="#e1ed5e" style="font-size:6.75px; font-family:Arial;" text-anchor="middle"><textPath startOffset="22.20632615414155" xlink:href="#id67">July</textPath></text><line stroke="#e1ed5e" stroke-width="0.3" x1="58.666819895761336" x2="56.23545636021788" y1="174.27360380694188" y2="178.64263932499728" /><path d="M 58.180547188652646 175.14741091055294 a86.0,86.0 0 0,1 -31.652253787137756,-30.449443065178592" fill="none" id="id68" stroke="none" /><text fill="#e1ed5e" style="font-size:6.75px; font-family:Arial;" text-anchor="middle"><textPath startOffset="22.20632615414155" xlink:href="#id68">August</textPath></text><line stroke="#e1ed5e" stroke-width="0.3" x1="26.63291911575756" x2="22.317208475507996" y1="142.92168965132927" y2="145.44649492493687" /><path d="M 25.769776987707644 143.4266507060508 a86.0,86.0 0 0,1 -11.730757126820373,-40.83630448921669" fill="none" id="id69" stroke="none" /><text fill="#e1ed5e" style="font-size:6.75px; font-family:Arial;" text-anchor="middle"><textPath startOffset="21.46611528233685" xlink:href="#id69">September</textPath></text><line stroke="#e1ed5e" stroke-width="0.3" x1="15.007084014347285" x2="10.007500721073583" y1="101.09737516637583" y2="101.16192664675087" /><path d="M 14.007167355692545 101.11028546245083 a86.0,86.0 0 0,1 10.666146001902534,-42.60595125391555" fill="none" id="id70" stroke="none" /><text fill="#e1ed5e" style="font-size:6.75px; font-family:Arial;" text-anchor="middle"><textPath startOffset="22.20632615414155" xlink:href="#id70">October</textPath></text><line stroke="#e1ed5e" stroke-width="0.3" x1="26.266209847984243" x2="21.928928074336255" y1="57.711370442889674" y2="55.22380399835377" /><path d="M 25.398753493254645 57.213857153982495 a86.0,86.0 0 0,1 29.58750427330803,-30.492523968695096" fill="none" id="id71" stroke="none" /><text fill="#e1ed5e" style="font-size:6.75px; font-family:Arial;" text-anchor="middle"><textPath startOffset="21.46611528233685" xlink:href="#id71">November</textPath></text><line stroke="#e1ed5e" stroke-width="0.3" x1="56.762969772571076" x2="54.21961505331055" y1="26.818313649435495" y2="22.513508569990535" /><path d="M 56.25429882871897 25.957352633546506 a86.0,86.0 0 0,1 42.265352541879196,-11.944610805530505" fill="none" id="id72" stroke="none" /><text fill="#e1ed5e" style="font-size:6.75px; font-family:Arial;" text-anchor="middle"><textPath startOffset="22.20632615414155" xlink:href="#id72">December</textPath></text></svg>