<?xml version="1.0" encoding="utf-8" ?>
<svg baseProfile="full" height="200mm" version="1.1" viewBox="0,0,200,200" width="200mm" xmlns="http://www.w3.org/2000/svg" xmlns:ev="http://www.w3.org/2001/xml-events" xmlns:xlink="http://www.w3.org/1999/xlink"><defs /><rect fill="#1a1a1a" height="200" width="200" x="0" y="0" /><text alignment-baseline="middle" fill="#e1ed5e" style="dominant-baseline: central; font-size:9.0px; font-family:Arial;" text-anchor="middle" x="100.0" y="100.0">2020</text><line stroke="#e1ed5e" stroke-width="0.3" x1="100.0" x2="100.0" y1="15.0" y2="10.0" /><path d="M 100.0 14.0 a86.0,86.0 0 0,1 42.35913384403234,11.155469271406648" fill="none" id="id1" stroke="none" /><text fill="#e1ed5e" style="font-size:6.75px; font-family:Arial;" text-anchor="middle"><textPath startOffset="22.145653131862478" xlink:href="#id1">January</textPath></text><line stroke="#e1ed5e" stroke-width="0.3" x1="143.13028292997686" x2="145.6673583964461" y1="26.7553504044142" y2="22.446841604673864" /><path d="M 143.63769802327073 25.89364864446614 a86.0,86.0 0 0,1 29.32050498858742,28.57503671076993" fill="none" id="id2" stroke="none" /><text fill="#e1ed5e" style="font-size:6.75px; font-family:Arial;" text-anchor="middle"><textPath startOffset="20.669276256404974" xlink:href="#id2">February</textPath></text><line stroke="#e1ed5e" stroke-width="0.3" x1="172.87174338648825" x2="177.1583165268699" y1="56.24261187166439" y2="53.66864786411523" /><path d="M 173.72905801456457 55.72781907015455 a86.0,86.0 0 0,1 12.242430191666344,42.057860355516425" fill="none" id="id3" stroke="none" /><text fill="#e1ed5e" style="font-size:6.75px; font-family:Arial;" text-anchor="middle"><textPath startOffset="22.145653131862474" xlink:href="#id3">March</textPath></text><line stroke="#e1ed5e" stroke-width="0.3" x1="184.99686870605535" x2="189.99668451229388" y1="99.2704041080226" y2="99.22748670261217" /><path d="M 185.99683186730306 99.26182062694052 a86.0,86.0 0 0,1 -10.086455211305974,41.156179273409016" fill="none" id="id4" stroke="none" /><text fill="#e1ed5e" style="font-size:6.75px; font-family:Arial;" text-anchor="middle"><textPath startOffset="21.40746469413373" xlink:href="#id4">April</textPath></text><line stroke="#e1ed5e" stroke-width="0.3" x1="174.33088141563837" x2="178.70328620479359" y1="141.23008692659167" y2="143.65538615756765" /><path d="M 175.20536237346943 141.71514677278685 a86.0,86.0 0 0,1 -30.301960400862466,31.631185727798858" fill="none" id="id5" stroke="none" /><text fill="#e1ed5e" style="font-size:6.75px; font-family:Arial;" text-anchor="middle"><textPath startOffset="22.145653131862474" xlink:href="#id5">May</textPath></text><line stroke="#e1ed5e" stroke-width="0.3" x1="143.1302829299769" x2="145.66735839644613" y1="173.24464959558577" y2="177.55315839532614" /><path d="M 143.63769802327073 174.10635135553383 a86.0,86.0 0 0,1 -40.68552437913181,11.842963189579606" fill="none" id="id6" stroke="none" /><text fill="#e1ed5e" style="font-size:6.75px; font-family:Arial;" text-anchor="middle"><textPath startOffset="21.407464694133747" xlink:href="#id6">June</textPath></text><line stroke="#e1ed5e" stroke-width="0.3" x1="101.45913802915013" x2="101.54496967792366" y1="184.9874750549273" y2="189.98673829345242" /><path d="M 101.47630435890484 185.9873277026323 a86.0,86.0 0 0,1 -42.54439059252881,-10.42667462771756" fill="none" id="id7" stroke="none" /><text fill="#e1ed5e" style="font-size:6.75px; font-family:Arial;" text-anchor="middle"><textPath startOffset="22.145653131862474" xlink:href="#id7">July</textPath></text><line stroke="#e1ed5e" stroke-width="0.3" x1="58.13341422392154" x2="55.67067388415222" y1="173.97424548756322" y2="178.32567169271397" /><path d="M 57.64086615596768 174.84453072859336 a86.0,86.0 0 0,1 -31.369924170532247,-30.572349798747897" fill="none" id="id8" stroke="none" /><text fill="#e1ed5e" style="font-size:6.75px; font-family:Arial;" text-anchor="middle"><textPath startOffset="22.145653131862474" xlink:href="#id8">August</textPath></text><line stroke="#e1ed5e" stroke-width="0.3" x1="26.387840678322732" x2="22.057713659400548" y1="142.50000000000003" y2="145.00000000000006" /><path d="M 25.521815274538298 143.00000000000003 a86.0,86.0 0 0,1 -11.493303480769221,-40.785679425670985" fill="none" id="id9" stroke="none" /><text fill="#e1ed5e" style="font-size:6.75px; font-family:Arial;" text-anchor="middle"><textPath startOffset="21.40746469413373" xlink:href="#id9">September</textPath></text><line stroke="#e1ed5e" stroke-width="0.3" x1="15.003131293944662" x2="10.003315487706104" y1="100.72959589197737" y2="100.7725132973878" /><path d="M 14.003168132696942 100.73817937305945 a86.0,86.0 0 0,1 10.791469493833604,-42.45332614584628" fill="none" id="id10" stroke="none" /><text fill="#e1ed5e" style="font-size:6.75px; font-family:Arial;" text-anchor="middle"><textPath startOffset="22.145653131862435" xlink:href="#id10">October</textPath></text><path d="M 80.9802524753101 91.09779779509293 l -36.82377570281538 -17.235386370353577 a61.65770530104505,61.65770530104505 0 0,0 0.4569151357827681,-0.954776900726431 l 36.52248130907271 17.864975773145098" fill="red" stroke="none" /><path d="M 81.63589988554816 89.8137432299009 l -38.13045376114888 -21.15031993676579 a64.60352666308845,64.60352666308845 0 0,0 0.5462586113008039,-0.9651866246793306 l 37.7617617848267 21.801763331544226" fill="red" stroke="none" /><line stroke="#e1ed5e" stroke-width="0.3" x1="26.387840678322718" x2="22.05771365940052" y1="57.49999999999999" y2="54.99999999999999" /><path d="M 25.521815274538284 56.99999999999999 a86.0,86.0 0 0,1 29.574782752854787,-30.34633250058573" fill="none" id="id11" stroke="none" /><text fill="#e1ed5e" style="font-size:6.75px; font-family:Arial;" text-anchor="middle"><textPath startOffset="21.40746469413373" xlink:href="#id11">November</textPath></text><path d="M 81.99639281039701 89.18935116829357 l -39.1792893301604 -23.526037530344873 a66.70001262905313,66.70001262905313 0 0,0 0.5978609118103649,-0.9765608684503846 l 38.769660453894645 24.1951355149198" fill="red" stroke="none" /><path d="M 82.18462484594161 88.88188828441811 l -27.18879476239374 -16.967818806299984 a53.04898493985413,53.04898493985413 0 0,0 0.4887638125269704,-0.7684178948038429 l 26.89351325824088 17.4320503757825" fill="red" stroke="none" /><path d="M 82.37810715431573 88.57770195909679 l -43.02878665885621 -27.89073965321861 a72.27738136583208,72.27738136583208 0 0,0 0.6837975855331969,-1.0353566978954138 l 42.54366463440228 28.625276229453085" fill="red" stroke="none" /><path d="M 82.98947788004972 87.6856937992154 l -29.726656753046708 -21.519807034806536 a57.69844978372746,57.69844978372746 0 0,0 0.5876943753277978,-0.7973202901050013 l 29.35286035813509 22.026933634180402" fill="red" stroke="none" /><path d="M 83.42222388311158 87.10902102172516 l -41.06104683389309 -31.92931837355672 a73.0143339753102,73.0143339753102 0 0,0 0.7778932168869165,-0.9828426677701314 l 40.50688718636461 32.62948098524153" fill="red" stroke="none" /><path d="M 83.64595745247003 86.82634096563983 l -46.92757733502547 -37.80153447219473 a81.2590534524674,81.2590534524674 0 0,0 0.8843816729628389,-1.0788018425661008 l 46.271748842824 38.60153859645933" fill="red" stroke="none" /><path d="M 84.10781606972428 86.27271002978789 l -38.86467624435217 -33.57038168859028 a72.35594986265905,72.35594986265905 0 0,0 0.8199959773371261,-0.9330048976242482 l 38.28266920305645 34.23259886402583" fill="red" stroke="none" /><path d="M 84.58840730492382 85.73525988315684 l -22.75901951589044 -21.065408691475547 a52.01168187415148,52.01168187415148 0 0,0 0.6121135120362591,-0.6500433376438252 l 22.394050170117907 21.452993489063882" fill="red" stroke="none" /><path d="M 85.08716467003674 85.21462403516908 l -36.44140801418135 -36.129944859975964 a72.31616834527831,72.31616834527831 0 0,0 0.8815963524586703,-0.8740613861761939 l 35.8158197415927 36.75018625638083" fill="red" stroke="none" /><path d="M 85.34317274990677 84.96080404539775 l -22.107408096243766 -22.68414826310076 a52.67503867647523,52.67503867647523 0 0,0 0.6529886607426644,-0.6255483657903783 l 21.714746949635803 23.060308759196708" fill="red" stroke="none" /><path d="M 85.86807049272753 84.46653392183569 l -34.893903737599786 -38.35451271985221 a72.8522242919837,72.8522242919837 0 0,0 0.9322828829029751,-0.83365310263337 l 34.23035582787342 38.947861352368975" fill="red" stroke="none" /><path d="M 86.68645165197937 83.75963576809568 l -13.600222801761987 -16.590060452854612 a42.45218324756101,42.45218324756101 0 0,0 0.5675437020709859,-0.4571730320776766 l 13.313428329335757 16.821081778725688" fill="red" stroke="none" /><path d="M 86.96720088162412 83.53348406188908 l -32.08801631828964 -40.54216038536816 a72.70403813974048,72.70403813974048 0 0,0 0.9852783923538108,-0.7661584372974031 l 31.387327981300583 41.08701987428637" fill="red" stroke="none" /><path d="M 87.54013794807813 83.09580414077388 l -36.22419781722824 -49.14508139769706 a82.05269472421305,82.05269472421305 0 0,0 1.1409973814027596,-0.8259941129266114 l 35.37521942545151 49.759676281996754" fill="red" stroke="none" /><path d="M 88.12776184653039 82.6780497279521 l -35.07357446469078 -51.17339333045567 a83.03927635525525,83.03927635525525 0 0,0 1.1827312281712739,-0.79579435393128 l 34.18994694842251 51.76793735844406" fill="red" stroke="none" /><line stroke="#e1ed5e" stroke-width="0.3" x1="56.869717070023135" x2="54.33264160355391" y1="26.7553504044142" y2="22.446841604673864" /><path d="M 56.362301976729285 25.89364864446614 a86.0,86.0 0 0,1 42.16139366436587,-11.88097634709845" fill="none" id="id12" stroke="none" /><text fill="#e1ed5e" style="font-size:6.75px; font-family:Arial;" text-anchor="middle"><textPath startOffset="22.145653131862474" xlink:href="#id12">December</textPath></text><path d="M 89.34428304082924 81.90426304109057 l -26.1168181000204 -44.352066815636654 a72.47032172512866,72.47032172512866 0 0,0 1.077418109484061,-0.6220476355403969 l 25.351607522675938 44.79386134845322" fill="red" stroke="none" /><path d="M 90.28995756902619 81.37971332152246 l -25.264565931125958 -48.44813643081911 a75.63991412243867,75.63991412243867 0 0,0 1.1564722560303535,-0.5905029741201682 l 24.42916645338202 48.87469735661212" fill="red" stroke="none" /><path d="M 90.93487009805054 81.0573650232925 l -23.535908414959408 -49.180996496687605 a75.52255864616549,75.52255864616549 0 0,0 1.174236559774898,-0.5496020006543662 l 22.68818314131299 49.577774728912516" fill="red" stroke="none" /><path d="M 92.25597844496254 80.48000691201159 l -18.71738787372015 -47.18004454449734 a71.757238026079,71.757238026079 0 0,0 1.1488939900581818,-0.4444168764084325 l 17.904721621168438 47.494401309043816" fill="red" stroke="none" /><path d="M 92.592206182469 80.34994680014964 l -18.07592438296658 -47.94853697482508 a72.24257253812394,72.24257253812394 0 0,0 1.1641747742530852,-0.4275011026065945 l 17.25016045705937 48.2517689264404" fill="red" stroke="none" /><path d="M 93.27111125876988 80.10723608172694 l -17.223006389125924 -50.91675806177118 a74.75079720897926,74.75079720897926 0 0,0 1.219068970798981,-0.40073218448812864 l 16.34641468067918 51.204911167661336" fill="red" stroke="none" /><path d="M 93.95794788825049 79.88797359093562 l -17.164708330853056 -57.13573151457722 a80.65835254001831,80.65835254001831 0 0,0 1.3294800547390726,-0.38699226788462615 l 16.18136826373236 57.42196747676437" fill="red" stroke="none" /><path d="M 94.6519064749342 79.69241777938228 l -12.82407751213014 -48.69511111961212 a71.35544470053357,71.35544470053357 0 0,0 1.1872006989483654,-0.3017817751604571 l 11.986271519956397 48.90807812660784" fill="red" stroke="none" /><path d="M 95.00130118170881 79.60360301121753 l -14.521209808700535 -59.251491394496085 a82.00495690335617,82.00495690335617 0 0,0 1.3701382195872578,-0.32334888912963944 l 13.501939435373371 59.492036427271955" fill="red" stroke="none" /><path d="M 95.70440661134978 79.44403061299748 l -12.550705893950022 -60.05967110922867 a82.35702333217566,82.35702333217566 0 0,0 1.3863570090062591,-0.2773102289937405 l 11.517852399412787 60.26627073488527" fill="red" stroke="none" /><path d="M 96.41257539226777 79.30868818359171 l -8.551238690195673 -49.321272361796886 a71.05708332017807,71.05708332017807 0 0,0 1.2036477668771233,-0.1980597819979391 l 7.703313420265477 49.4607981422905" fill="red" stroke="none" /><path d="M 97.48249496171623 79.15144685158666 l -6.564485992937193 -54.36336096036798 a75.75826413664635,75.75826413664635 0 0,0 1.2924507712954336,-0.1448218047179853 l 5.630299320040961 54.46803852559293" fill="red" stroke="none" /><path d="M 98.1996594967304 79.07731436759882 l -3.1477111751195093 -36.58117520492156 a57.716351466548794,57.716351466548794 0 0,0 0.9878593440727857,-0.07646656089036655 l 2.5192828362715063 36.62981953280698" fill="red" stroke="none" /><path d="M 98.5590905019552 79.04949213459386 l -4.22548655140495 -61.437647090604614 a82.58278344331134,82.58278344331134 0 0,0 1.4151371923188378,-0.08513113939425195 l 3.1702050069536285 61.50113020782356" fill="red" stroke="none" /><path d="M 99.27912038922189 79.0123766808444 l -2.1626388323343404 -62.96286995746683 a84.0,84.0 0 0,0 1.4415467437170244,-0.03712913059981959 l 1.081478774546572 62.990716805416696" fill="red" stroke="none" /></svg>