<?xml version="1.0" encoding="utf-8" ?>
<svg baseProfile="full" height="200mm" version="1.1" viewBox="0,0,200,200" width="200mm" xmlns="http://www.w3.org/2000/svg" xmlns:ev="http://www.w3.org/2001/xml-events" xmlns:xlink="http://www.w3.org/1999/xlink"><defs /><rect fill="#1a1a1a" height="200" width="200" x="0" y="0" /><text alignment-baseline="middle" fill="#e1ed5e" style="dominant-baseline: central; font-size:9.0px; font-family:Arial;" text-anchor="middle" x="100.0" y="100.0">2025</text><line stroke="#e1ed5e" stroke-width="0.3" x1="100.0" x2="100.0" y1="15.0" y2="10.0" /><path d="M 100.0 14.0 a86.0,86.0 0 0,1 42.46469731375804,11.215312516191453" fill="none" id="id61" stroke="none" /><text fill="#e1ed5e" style="font-size:6.75px; font-family:Arial;" text-anchor="middle"><textPath startOffset="22.20632615414155" xlink:href="#id61">January</textPath></text><path d="M 100.72285384407766 79.0124445844662 l 0.7852977174204224 -22.800569571685937 a43.81408918406072,43.81408918406072 0 0,0 0.7535171418730934,0.032448033194468213 l -1.1776556916828473 22.783673811967272" fill="#ffe215" stroke="none" /><path d="M 101.08401301168833 79.027996857942 l 0.6619910105653124 -12.807297886551146 a33.824395161290326,33.824395161290326 0 0,0 0.5811964499637784,0.03505935704047393 l -0.8823495093687027 12.794005260130369" fill="#ff4e07" stroke="none" /><path d="M 101.44485096284872 79.0497635885617 l 0.858171559788774 -12.443426707277663 a33.47298387096774,33.47298387096774 0 0,0 0.5744757989720424,0.04459037845524182 l -1.0722375481231576 12.426811066633958" fill="#ff4806" stroke="none" /><path d="M 102.16513564639614 79.11191278185805 l 2.569814699849678 -24.792217371817426 a45.92504743833017,45.92504743833017 0 0,0 0.7856098182258854,0.08827241674598207 l -2.9961912215852884 24.744309001600843" fill="#ffff18" stroke="none" /><path d="M 103.2404852339499 79.25152402106235 l 1.2332060089209973 -7.896084507686554 a28.991805028463,28.991805028463 0 0,0 0.4924061959508975,0.08125124143099184 l -1.36894141101077 7.873687003315937" fill="#ff0000" stroke="none" /><path d="M 103.59715602781102 79.31037775812273 l 2.142253167606246 -12.321514118810594 a33.506356736242886,33.506356736242886 0 0,0 0.5673820918797454,0.10368545067596112 l -2.3540303805888922 12.282813186783894" fill="#ff4906" stroke="none" /><path d="M 104.307194497241 79.44645832069477 l 5.119748373754437 -24.43097511731173 a45.961657969639475,45.961657969639475 0 0,0 0.7729378058069128,0.16893426668526307 l -5.539528903714878 24.339227352530592" fill="#feff18" stroke="none" /><path d="M 105.36241919743992 79.69619591428918 l 5.155795620916179 -19.52146229877446 a41.190832542694494,41.190832542694494 0 0,0 0.6839681072509635,0.18695432075662322 l -5.491061617390853 19.429821437191542" fill="#ffbd11" stroke="none" /><path d="M 105.71112130821622 79.79150937346287 l 5.495802823410484 -19.446597935576953 a41.20826612903226,41.20826612903226 0 0,0 0.6809367360681218,0.19878410577303607 l -5.829729777202033 19.349115500885215" fill="#ffbd11" stroke="none" /><path d="M 106.0581310904928 79.89281104454417 l 9.461303473834489 -31.40245958227125 a53.79680977229602,53.79680977229602 0 0,0 0.8843545540426458,0.27477326475843666 l -10.000443400587852 31.234946182630292" fill="#98ff23" stroke="none" /><path d="M 106.40334571778207 80.00007090966166 l 7.60078351756845 -23.739953780761194 a45.92703984819734,45.92703984819734 0 0,0 0.7508353192115782,0.24753859981976714 l -8.008301659022447 23.60560145668219" fill="#ffff18" stroke="none" /><path d="M 106.74666289553966 80.11325718540242 l 4.044877245709395 -11.922847598509865 a33.590287001897536,33.590287001897536 0 0,0 0.5459509258298636,0.19047155799460228 l -4.2495101756025315 11.851455187343054" fill="#ff4a06" stroke="none" /><path d="M 107.08798089147638 80.2323363322302 l 8.4169773086282 -23.474100605476625 a45.9375,45.9375 0 0,0 0.742038662372489,0.2732991016736647 l -8.819798296773266 23.325738235996635" fill="#ffff18" stroke="none" /><path d="M 107.4271985657038 80.35727306442388 l 4.404349889496223 -11.648192981886584 a33.453059772296015,33.453059772296015 0 0,0 0.536868777406484,0.20829674487682603 l -4.604201831902374 11.570653533119213" fill="#ff4806" stroke="none" /><path d="M 108.09893153111575 80.62456947434976 l 7.7829272054827925 -18.619439462683097 a41.180621442125236,41.180621442125236 0 0,0 0.6516661604526965,0.27900944083672363 l -8.102277123725804 18.482710493883584" fill="#ffbd11" stroke="none" /><path d="M 108.43124777332544 80.76684994638697 l 10.010806846798179 -22.836400425967458 a45.93426233396585,45.93426233396585 0 0,0 0.721425766322847,0.32368271229272444 l -10.402414731587807 22.6606973831582" fill="#ffff18" stroke="none" /><path d="M 109.08828744355905 81.06846463323043 l 10.795467054784526 -22.487709331122772 a45.944722485768494,45.944722485768494 0 0,0 0.7100182178982749,0.3484028559474185 l -11.180956539693232 22.298551315040523" fill="#feff18" stroke="none" /><path d="M 109.41281617654863 81.2277094730956 l 11.173030662694478 -22.282744476480158 a45.92703984819734,45.92703984819734 0 0,0 0.7036449241548003,0.36043425986921723 l -11.554936074438034 22.087117691298438" fill="#ffff18" stroke="none" /><path d="M 110.05341064243156 81.56283822128135 l 16.231035946230254 -29.76643909419243 a54.904091555977224,54.904091555977224 0 0,0 0.8258514254246044,0.4595854241184257 l -16.74101146072689 29.482638272513825" fill="#8bff24" stroke="none" /><path d="M 110.36928655335952 81.73862282372117 l 6.160207202531292 -10.848756723094587 a33.475723434535105,33.475723434535105 0 0,0 0.4986340796861697,0.2888410435570597 l -6.34603801468279 10.741111522147477" fill="#ff4806" stroke="none" /><line stroke="#e1ed5e" stroke-width="0.3" x1="143.23703022742887" x2="145.7803849466894" y1="26.81831364943548" y2="22.513508569990506" /><path d="M 143.74570117128098 25.957352633546492 a86.0,86.0 0 0,1 28.547481713284135,27.462654790039103" fill="none" id="id62" stroke="none" /><text fill="#e1ed5e" style="font-size:6.75px; font-family:Arial;" text-anchor="middle"><textPath startOffset="19.985693538727396" xlink:href="#id62">February</textPath></text><path d="M 110.68208982089419 81.91981866633111 l 10.152039253880185 -17.183033815878673 a40.95796963946869,40.95796963946869 0 0,0 0.6039114805278962,0.36384990980638143 l -10.446312800625718 17.005737296613678" fill="#ffb911" stroke="none" /><path d="M 110.99172775467656 82.1063720568725 l 10.45713245674097 -17.023350806092793 a40.978640891840605,40.978640891840605 0 0,0 0.59786051100356,0.37438019714260057 l -10.748612120116793 16.84082626762725" fill="#ffba11" stroke="none" /><path d="M 111.2981086023043 82.29822771554956 l 13.417441901197163 -21.022324137191813 a45.939243358633775,45.939243358633775 0 0,0 0.6629097880088832,0.43117496615637974 l -13.777318714990328 20.788250246875904" fill="#ffff18" stroke="none" /><path d="M 111.60114157652 82.49532879139004 l 6.9017986959742625 -10.41395074132721 a33.49340607210626,33.49340607210626 0 0,0 0.4778317727399268,0.32263414594907075 l -7.080035163120732 10.293604683079469" fill="#ff4906" stroke="none" /><path d="M 111.90073688211348 82.69761687909136 l 19.63409878891664 -28.54585416388713 a55.646264231499046,55.646264231499046 0 0,0 0.7845298113069985,0.549613268817903 l -20.122559739807286 28.203656052305295" fill="#82ff25" stroke="none" /><path d="M 112.48926042617603 83.11751280151076 l 12.033206905632909 -16.266012126333788 a41.23317125237192,41.23317125237192 0 0,0 0.5669636567553173,0.4270252718788236 l -12.31141671614661 16.05647026494912" fill="#ffbd11" stroke="none" /><path d="M 112.77801427241765 83.33499621200491 l 15.17010340062107 -19.784750998544222 a45.931273719165084,45.931273719165084 0 0,0 0.6232817957153944,0.4864813278878901 l -15.508417751495895 19.52069128143311" fill="#ffff18" stroke="none" /><path d="M 113.06298171725822 83.55741782278167 l 12.518742452875768 -15.757539587221071 a41.1250830170778,41.1250830170778 0 0,0 0.5504819557073206,0.4451181247280131 l -12.78812780714758 15.539715365228929" fill="#ffbc11" stroke="none" /><path d="M 113.34407831869373 83.78471172551755 l 15.843877430672928 -19.252962534251484 a45.93401328273245,45.93401328273245 0 0,0 0.6062031227870995,0.5076776818656729 l -16.172938090419144 18.977383694991993" fill="#ffff18" stroke="none" /><path d="M 113.6212207817346 84.01681056812373 l 21.266195562280036 -24.95383032209857 a53.78634962049336,53.78634962049336 0 0,0 0.6994945537861904,0.6065947841095909 l -21.69258391471299 24.584070544569308" fill="#98ff23" stroke="none" /><path d="M 113.89432698308785 84.25364557470407 l 9.061467446951893 -10.269304746222119 a34.695576375711575,34.695576375711575 0 0,0 0.4444156582900265,0.3990007660026139 l -9.23689409283791 10.111804971450207" fill="#ff5b08" stroke="none" /><path d="M 115.19652480421416 85.50635884689758 l 14.601603926857525 -13.92623710369075 a41.17788187855787,41.17788187855787 0 0,0 0.4847865720199908,0.5171365142646974 l -14.839157820847978 13.672831172547998" fill="#ffbd11" stroke="none" /><path d="M 115.4437574822437 85.77008943001954 l 18.332135749499184 -16.891268369892607 a45.92753795066413,45.92753795066413 0 0,0 0.530695674027477,0.5860074181644029 l -18.620175064142696 16.573208164458656" fill="#ffff18" stroke="none" /><path d="M 115.68641384162765 86.03803664274999 l 14.901162977947505 -13.263037274103047 a40.948754743833014,40.948754743833014 0 0,0 0.4641017526374973,0.5305485313646529 l -15.127256594162851 13.004573186535445" fill="#ffb911" stroke="none" /><path d="M 115.9244219780498 86.31012108654704 l 9.301962524986543 -7.9966946869451165 a33.26676944971537,33.26676944971537 0 0,0 0.3695611541042671,0.4374438408709881 l -9.438234292577928 7.835391896445022" fill="#ff4506" stroke="none" /><path d="M 116.15771136456269 86.58626213691792 l 25.122443465705203 -20.856039789654275 a53.65136385199241,53.65136385199241 0 0,0 0.5837817877303578,0.7156474446218464 l -25.47772374551197 20.42050817542433" fill="#9aff23" stroke="none" /><path d="M 116.60985879189232 87.15038557335679 l 19.7198736235621 -15.25556452825425 a45.93202087286527,45.93202087286527 0 0,0 0.47840181328685,0.6295207086552744 l -19.979551377073065 14.913859043717942" fill="#ffff18" stroke="none" /><path d="M 117.2510076193507 88.02491185347247 l 16.426101752163532 -11.402465335725836 a40.995825426944975,40.995825426944975 0 0,0 0.3974165269829357,0.5831597147237303 l -16.6199427448152 11.1180275977317" fill="#ffba11" stroke="none" /><path d="M 117.65298651832404 88.62581576622439 l 20.956222064886138 -13.502527199151693 a45.9295303605313,45.9295303605313 0 0,0 0.4224913230018186,0.6682798114781963 l -21.18554098413391 13.13979973995929" fill="#ffff18" stroke="none" /><line stroke="#e1ed5e" stroke-width="0.3" x1="172.23445277983987" x2="176.4835382374775" y1="55.19839476539836" y2="52.563006222186495" /><path d="M 173.08426987136738 54.67131705675599 a86.0,86.0 0 0,1 12.851231095245387,41.99856678651699" fill="none" id="id63" stroke="none" /><text fill="#e1ed5e" style="font-size:6.75px; font-family:Arial;" text-anchor="middle"><textPath startOffset="22.20632615414155" xlink:href="#id63">March</textPath></text><path d="M 118.03404312379186 89.2402003453031 l 21.405801779467602 -12.771519787005918 a45.92629269449715,45.92629269449715 0 0,0 0.39920954375354945,0.6823785159497145 l -21.622470997691476 12.401161858702308" fill="#ffff18" stroke="none" /><path d="M 118.21658344932153 89.55222093294921 l 11.475237743052217 -6.581406936971895 a34.228605313092984,34.228605313092984 0 0,0 0.28873028002055484,0.5136189507661488 l -11.586825664365204 6.382904476270952" fill="#ff5407" stroke="none" /><path d="M 118.3937258080291 89.86733742301442 l 17.689781866111293 -9.744876735715044 a41.19631166982923,41.19631166982923 0 0,0 0.33681300265626285,0.6240633408921729 l -17.85490296798602 9.438932411490413" fill="#ffbd11" stroke="none" /><path d="M 118.89224826269711 90.83032412892265 l 22.424462373956832 -10.884096413149615 a45.92629269449715,45.92629269449715 0 0,0 0.3390712080717617,0.7141704381381184 l -22.60849177587035 10.496483559370956" fill="#ffff18" stroke="none" /><path d="M 119.196687751892 91.48605970444005 l 29.842972255470347 -13.235683536087334 a53.64638282732447,53.64638282732447 0 0,0 0.36711826645821916,0.8473595749361005 l -30.066381231771246 12.720024816564631" fill="#9aff23" stroke="none" /><path d="M 119.34039704204932 91.81776055985345 l 21.80015057476917 -9.222874351865375 a44.67082542694497,44.67082542694497 0 0,0 0.2935050065624299,0.7107456539992142 l -21.955677268217794 8.846254127412859" fill="#ffee16" stroke="none" /><path d="M 119.47837535516314 92.15188598940014 l 12.812252518067037 -5.162238465013039 a34.81312855787476,34.81312855787476 0 0,0 0.21916762591183905,0.5577577021899024 l -12.899213693860577 4.940931757927353" fill="#ff5d08" stroke="none" /><path d="M 119.61058180528143 92.48833698450437 l 15.778238743286318 -6.0437172947966635 a37.89613377609108,37.89613377609108 0 0,0 0.22809035346792808,0.6111687479049168 l -15.879933685255871 5.771225409862414" fill="#ff8c0c" stroke="none" /><path d="M 119.7369772167798 92.82701384747503 l 23.912359090509852 -8.690440220228243 a46.44257590132827,46.44257590132827 0 0,0 0.26659568781722404,0.753701909620704 l -24.05840785913689 8.277540684180925" fill="#f8ff18" stroke="none" /><path d="M 119.97218684219823 93.5106431181261 l 31.057555869732845 -10.091211618930114 a53.65584677419355,53.65584677419355 0 0,0 0.2778466238317587,0.8808497259834658 l -31.22665797733281 9.555111726520229" fill="#9aff23" stroke="none" /><path d="M 120.18372546131832 94.20196356495316 l 15.074600268643056 -4.33037408127977 a36.684250474383305,36.684250474383305 0 0,0 0.16912003608464163,0.6084147515607455 l -15.146907075294061 4.070248026300073" fill="#ff7a0b" stroke="none" /><path d="M 120.28053869075195 94.5502522615342 l 19.472876820216552 -5.232714378577655 a41.16368595825427,41.16368595825427 0 0,0 0.1779911275594477,0.6858724216370363 l -19.5600642796463 4.896745531391769" fill="#ffbc11" stroke="none" /><path d="M 120.37134235888165 94.90015583598534 l 16.270498369322148 -4.073222308701737 a37.77260436432638,37.77260436432638 0 0,0 0.15247037613428083,0.6320881434433647 l -16.33820154571725 3.7925489335989666" fill="#ff8a0c" stroke="none" /><path d="M 120.45610955862082 95.25157060432595 l 24.2833816695886 -5.63684521809049 a45.92903225806452,45.92903225806452 0 0,0 0.1721367922987694,0.7716554872423371 l -24.376812848889408 5.218011561298189" fill="#ffff18" stroke="none" /><path d="M 120.6074358757038 95.95851677861258 l 36.922796456707516 -7.24121444640382 a58.62616223908918,58.62616223908918 0 0,0 0.1856893686321981,0.9919600322754701 l -37.041971549249574 6.604576336665787" fill="#5eff29" stroke="none" /><path d="M 120.73433829027371 96.67025291283417 l 27.31758905767419 -4.386957583105152 a48.66759962049336,48.66759962049336 0 0,0 0.1257109742794062,0.8282782524814807 l -27.389055925392896 3.9160802182315897" fill="#daff1c" stroke="none" /><path d="M 120.78858239683441 97.02765380044208 l 25.83977400198554 -3.6945642846687097 a47.102561669829214,47.102561669829214 0 0,0 0.10785141046239985,0.803618280384181 l -25.899541411505773 3.249227662219864" fill="#efff19" stroke="none" /><path d="M 120.83666639777658 97.38593545837742 l 24.724266442485085 -3.1017835094689525 a45.91807400379507,45.91807400379507 0 0,0 0.0916385843930539,0.7851034283393057 l -24.77399537988173 2.6757363428047944" fill="#ffff18" stroke="none" /><path d="M 120.87857604477298 97.74499172005257 l 25.9796142930933 -2.8059502341124793 a47.13070445920304,47.13070445920304 0 0,0 0.08017353485257785,0.8073365547196635 l -26.024064953628105 2.358338148688381" fill="#eeff19" stroke="none" /><path d="M 120.91429891909075 98.10471618934814 l 18.2536290364403 -1.6541700839338551 a39.32842741935484,39.32842741935484 0 0,0 0.05529486286304703,0.674737383680854 l -18.279398383122842 1.3397187830452324" fill="#ffa10e" stroke="none" /><path d="M 120.94382443527127 98.46500227214037 l 40.017558095244176 -2.932934285260832 a61.124893263757116,61.124893263757116 0 0,0 0.0678760183728095,1.050011961590528 l -40.0621147046214 2.243663259417269" fill="#42ff2d" stroke="none" /><path d="M 120.98425023603335 99.18683210126433 l 20.10849624432793 -0.7792312545747241 a41.12358870967742,41.12358870967742 0 0,0 0.021322199950064416,0.7075800117058436 l -20.11893013873364 0.43298109544388147" fill="#ffbc11" stroke="none" /><line stroke="#e1ed5e" stroke-width="0.3" x1="184.98032266829074" x2="189.97916517819016" y1="98.17113171792111" y2="98.06355123074" /><path d="M 185.9800911702706 98.14961562048488 a86.0,86.0 0 0,1 -9.607161424134198,41.387399972396054" fill="none" id="id64" stroke="none" /><text fill="#e1ed5e" style="font-size:6.75px; font-family:Arial;" text-anchor="middle"><textPath startOffset="21.466115282336823" xlink:href="#id64">April</textPath></text><path d="M 120.99513854157772 99.54816195383933 l 24.95438543376968 -0.5370453133807903 a45.96016366223909,45.96016366223909 0 0,0 0.010214083651442772,0.7910920351193567 l -24.95993252453884 0.10741702020097102" fill="#feff18" stroke="none" /><path d="M 120.99824983174949 100.27111621757518 l 37.38420619654177 0.48268139784356295 a58.387322106261855,58.387322106261855 0 0,0 -0.021625377682513484,1.0048463256164761 l -37.37035875617425 -1.126117539250154" fill="#61ff29" stroke="none" /><path d="M 120.9904718944345 100.63252640178507 l 25.5074561511294 0.7686411024538333 a46.51903462998102,46.51903462998102 0 0,0 -0.031007965078131063,0.8001777978710727 l -25.490446053200067 -1.2075961473389123" fill="#f7ff19" stroke="none" /><path d="M 120.9764740272857 100.99374915477107 l 14.149666623860961 0.6703328323656141 a35.16553605313093,35.16553605313093 0 0,0 -0.03384875269666316,0.6043922177048257 l -14.13603152027677 -0.913796766405863" fill="#ff6309" stroke="none" /><path d="M 120.95626037817324 101.35467743843564 l 27.626872671225534 1.785886433307707 a48.68453510436433,48.68453510436433 0 0,0 -0.06125775987067447,0.8358134639185407 l -27.592038352690523 -2.261173033723018" fill="#daff1c" stroke="none" /><path d="M 120.92983693683757 101.71520430193887 l 24.03555467585219 1.9697184886781876 a45.11612903225807,45.11612903225807 0 0,0 -0.07009199638538009,0.7734593394408131 l -23.998088083189735 -2.383159216667571" fill="#fff417" stroke="none" /><path d="M 120.89721153311464 102.0752229133903 l 14.3217274676901 1.4222365004625077 a35.39217267552182,35.39217267552182 0 0,0 -0.06542108038767219,0.6057179540986249 l -14.295124085801376 -1.6685507764459242" fill="#ff6609" stroke="none" /><path d="M 120.8583938346157 102.4346265915055 l 25.02314618992393 2.920743447465978 a46.1930265654649,46.1930265654649 0 0,0 -0.09898173708410339,0.7889818335601416 l -24.96916294359298 -3.3510430353135146" fill="#fbff18" stroke="none" /><path d="M 120.81339534386255 102.79330883721812 l 20.217034300803103 2.713272853457214 a41.398292220113845,41.398292220113845 0 0,0 -0.1008658527492464,0.7054555392021873 l -20.167334397037255 -3.060873864639811" fill="#ffc011" stroke="none" /><path d="M 120.70491114924044 103.5080841355445 l 25.60366562537121 4.338092182320031 a46.96857210626186,46.96857210626186 0 0,0 -0.1419201427805076,0.7959635294025421 l -25.525199040251515 -4.778174462455791" fill="#f1ff19" stroke="none" /><path d="M 120.64145759157962 103.86396538481128 l 36.743850825200646 6.878243315102035 a58.382092030360525,58.382092030360525 0 0,0 -0.1934117169320537,0.9862021777536346 l -36.62000917529293 -7.509709219923614" fill="#61ff29" stroke="none" /><path d="M 120.5718875245553 104.21870165774334 l 28.304155448128945 5.804367118355996 a49.89318074003795,49.89318074003795 0 0,0 -0.17977216579952732,0.839835709379751 l -28.200049243604976 -6.290716647151917" fill="#caff1d" stroke="none" /><path d="M 120.41448212921028 104.9243191809786 l 31.518972609978302 7.6029105419222045 a53.42298387096774,53.42298387096774 0 0,0 -0.22333016859373428,0.8920930085652536 l -31.383431127089505 -8.144331389884854" fill="#9dff22" stroke="none" /><path d="M 120.32669344350535 105.2749913415812 l 28.943360075913493 7.51110721579229 a50.90208728652751,50.90208728652751 0 0,0 -0.22739155840799574,0.8462085805722099 l -28.80978044116372 -8.008206729540047" fill="#bdff1f" stroke="none" /><path d="M 119.26925614724726 108.34839909993367 l 18.37115158535588 7.959295584009341 a41.02122865275142,41.02122865275142 0 0,0 -0.28628698925417506,0.6455015832102633 l -18.23142351137043 -8.274345503712292" fill="#ffba11" stroke="none" /><path d="M 119.12269723197855 108.67885076344098 l 23.015953201871522 10.445807962871623 a46.27546252371917,46.27546252371917 0 0,0 -0.3354428577898655,0.7225140732818113 l -22.832735727241825 -10.840442103432265" fill="#faff18" stroke="none" /><path d="M 118.97047184881838 109.00673069616215 l 22.52991012111623 10.696667678419995 a45.94023956356736,45.94023956356736 0 0,0 -0.34531034311661746,0.7114415843653857 l -22.3424465213849 -11.082898218750657" fill="#feff18" stroke="none" /><path d="M 118.81262510543309 109.33194174019688 l 22.730880822956998 11.275579795715588 a46.37383776091082,46.37383776091082 0 0,0 -0.36087972638113297,0.712049936818488 l -22.533422426789596 -11.66518394423677" fill="#f9ff18" stroke="none" /><path d="M 118.64920377521936 109.65438752849418 l 24.694491806387177 12.783934187843466 a48.80731736242884,48.80731736242884 0 0,0 -0.39266065945971335,0.7427659896646702 l -24.47077863870257 -13.20711519259427" fill="#d8ff1c" stroke="none" /><line stroke="#e1ed5e" stroke-width="0.3" x1="174.80103733775053" x2="179.2010983576182" y1="140.37084112569926" y2="142.7455964860345" /><path d="M 175.68104954172406 140.8457921977663 a86.0,86.0 0 0,1 -30.038265399797805,32.042727171017184" fill="none" id="id65" stroke="none" /><text fill="#e1ed5e" style="font-size:6.75px; font-family:Arial;" text-anchor="middle"><textPath startOffset="22.206326154141568" xlink:href="#id65">May</textPath></text><path d="M 118.30583269289576 110.29060199501025 l 13.223966804905913 7.433837152752183 a36.17020872865275,36.17020872865275 0 0,0 -0.30976856374285594,0.5401076013556118 l -13.094046245010679 -7.660364599966109" fill="#ff720a" stroke="none" /><path d="M 117.94076556474637 110.91462005526583 l 32.46784940842074 19.752459226201896 a59.0042220113852,59.0042220113852 0 0,0 -0.535351938192895,0.8631577841350198 l -32.123032830559886 -20.308413341702188" fill="#5aff2a" stroke="none" /><path d="M 117.75023020441432 111.22182372390056 l 23.267495188136994 14.709878491212095 a48.52738377609108,48.52738377609108 0 0,0 -0.4524488445901935,0.702210654375057 l -23.01084148016975 -15.108210745508606" fill="#dcff1b" stroke="none" /><path d="M 117.35343817320211 111.8261652097733 l 24.898026526990236 16.9677139576988 a51.129969165085384,51.129969165085384 0 0,0 -0.5018993076437452,0.7230233860800174 l -24.602266312184355 -17.393778605965835" fill="#baff1f" stroke="none" /><path d="M 117.14729908036423 112.12312394758627 l 20.35285974691762 14.389452253869505 a45.92579459203036,45.92579459203036 0 0,0 -0.4619264699544795,0.6415754655359944 l -20.10215348458754 -14.737661324856631" fill="#ffff18" stroke="none" /><path d="M 116.71984013943494 112.70617746262583 l 39.67967849219859 30.1544172897129 a70.83739326375712,70.83739326375712 0 0,0 -0.7461308798088475,0.9644747416077047 l -39.154740795171676 -30.832970025433855" fill="#3bff98" stroke="none" /><path d="M 116.498646956653 112.99209946851258 l 9.794506293989318 7.712826412420943 a33.46675759013283,33.46675759013283 0 0,0 -0.3602968777491093,0.4495257531695382 l -9.660291504185356 -7.8802799991687325" fill="#ff4806" stroke="none" /><path d="M 116.27256486870786 113.27417163493432 l 25.122315902677684 20.493261870503385 a53.420742409867174,53.420742409867174 0 0,0 -0.5873839576711887,0.707541816091883 l -24.765835945112954 -20.922664943709037" fill="#9dff22" stroke="none" /><path d="M 115.80600337817218 113.82643327865902 l 15.951091691913934 13.95335049115525 a42.19276565464895,42.19276565464895 0 0,0 -0.4828884682836386,0.5425303131821732 l -15.708544373981956 -14.22585497407829" fill="#ffcb12" stroke="none" /><path d="M 114.81725581225074 114.88116024355365 l 8.603743617452661 8.640850174153586 a33.19379743833017,33.19379743833017 0 0,0 -0.40836281662004,0.39966896504241795 l -8.453730848456827 -8.787669242118577" fill="#ff4406" stroke="none" /><path d="M 114.55890576462653 115.13401014063108 l 21.303968071257646 22.145515194518097 a51.729186432637576,51.729186432637576 0 0,0 -0.6470192186652907,0.6117970561514278 l -20.91961301820155 -22.508946887415448" fill="#b2ff20" stroke="none" /><path d="M 114.29624159901734 115.38237550388516 l 8.199315034730535 8.822244774287077 a33.044117647058826,33.044117647058826 0 0,0 -0.4199757089271406,0.38363785257699445 l -8.04623977633653 -8.962075393450656" fill="#ff4106" stroke="none" /><path d="M 114.0293411484842 115.62618273729858 l 13.432362068304398 14.961254562945786 a41.10640417457306,41.10640417457306 0 0,0 -0.5305811998109806,0.4681762192148979 l -13.172838515586829 -15.190253923932973" fill="#ffbb11" stroke="none" /><path d="M 113.75828350139079 115.86535959552629 l 16.325887262988108 18.82619093560221 a45.919070208728655,45.919070208728655 0 0,0 -0.6016153094239841,0.5127096184565223 l -15.999406476987074 -19.10442494428168" fill="#ffff18" stroke="none" /><path d="M 113.20401910651253 116.32954008644616 l 15.72816028272073 19.451170264973506 a46.014456831119546,46.014456831119546 0 0,0 -0.6201927253680614,0.49271860984733074 l -15.391010064635317 -19.719022788825963" fill="#fdff18" stroke="none" /><path d="M 112.92097659922987 116.55440617244103 l 17.962026969069367 23.0130197855197 a50.19303842504744,50.19303842504744 0 0,0 -0.6856638454175374,0.5257377984598796 l -17.563234395158336 -23.31879692580695" fill="#c6ff1e" stroke="none" /><path d="M 112.63410532772338 116.77436683061366 l 16.512290197237885 21.923452891770836 a48.44619307400379,48.44619307400379 0 0,0 -0.6704377063480741,0.4959737872544343 l -16.13246752047125 -22.20443662776504" fill="#ddff1b" stroke="none" /><path d="M 112.34349029814194 116.9893568818739 l 37.03047089442582 50.96807064562168 a84.0,84.0 0 0,0 -1.1770906886044616,0.8398229526231229 l -36.14765287797247 -51.597937860089026" fill="#4dd2ff" stroke="none" /><path d="M 112.04921762599082 117.19931262002967 l 19.054825952772134 27.19926875376965 a54.20973671726755,54.20973671726755 0 0,0 -0.7688569936973447,0.5288268510774049 l -18.583812074451906 -27.52323639421215" fill="#93ff23" stroke="none" /><path d="M 111.7513745106137 117.40417183066458 l 11.785101178445402 17.45412213406853 a42.060270398481975,42.060270398481975 0 0,0 -0.6035154118524357,0.39997710628624245 l -11.482911067853003 -17.65439726144609" fill="#ffc912" stroke="none" /><path d="M 111.1453310114006 117.79835938074945 l 27.913291180331548 44.575687112285436 a73.59414136622391,73.59414136622391 0 0,0 -1.0794536335199554,0.6630885866834431 l -27.141858346879282 -45.04956416579726" fill="#3effb9" stroke="none" /><line stroke="#e1ed5e" stroke-width="0.3" x1="143.8653032363475" x2="146.44561519142675" y1="172.8068346515853" y2="177.08958963109032" /><path d="M 144.38136562736335 173.6633856474863 a86.0,86.0 0 0,1 -40.68145358897372,12.25698825130547" fill="none" id="id66" stroke="none" /><text fill="#e1ed5e" style="font-size:6.75px; font-family:Arial;" text-anchor="middle"><textPath startOffset="21.466115282336833" xlink:href="#id66">June</textPath></text><path d="M 110.5260780823613 118.17145234162733 l 12.494100152669944 21.568901892928967 a45.92629269449715,45.92629269449715 0 0,0 -0.6874755590120526,0.3903665644170011 l -12.120975826736693 -21.7807716231406" fill="#ffff18" stroke="none" /><path d="M 110.21172684928248 118.3499491758327 l 6.074112430334005 10.914868369472119 a33.49116461100569,33.49116461100569 0 0,0 -0.5061586500707242,0.27599805330413735 l -5.885330968394633 -11.017807074536027" fill="#ff4806" stroke="none" /><path d="M 109.89434966115114 118.52300852407294 l 11.75188707974723 22.000466125307202 a45.94248102466793,45.94248102466793 0 0,0 -0.700752125366904,0.366600392401187 l -11.37144405185383 -22.199495936653108" fill="#feff18" stroke="none" /><path d="M 109.2508944713604 118.85261126421891 l 17.969357836583317 36.62016889388784 a61.79135436432638,61.79135436432638 0 0,0 -0.9589056959258333,0.4603330066475766 l -17.33633947265725 -36.92405617703498" fill="#3bff2e" stroke="none" /><path d="M 108.92500713936063 119.00905698771935 l 22.379624756920954 47.66557109987491 a73.65789848197343,73.65789848197343 0 0,0 -1.1523322388496517,0.5289792125286548 l -21.555824522303883 -48.04373738273764" fill="#3fffba" stroke="none" /><path d="M 108.59647513512805 119.15986991738527 l 10.28467522718907 22.92253934293061 a46.12403937381404,46.12403937381404 0 0,0 -0.7271769446638835,0.31877300278012705 l -9.888577607867433 -23.096176899005194" fill="#fcff18" stroke="none" /><path d="M 108.2653958097858 119.30500536409082 l 8.198935440252658 19.149777735570265 a41.83114326375712,41.83114326375712 0 0,0 -0.6643752457292154,0.2777089065972399 l -7.868088735025982 -19.288071685187475" fill="#ffc612" stroke="none" /><path d="M 107.93186726928326 119.44442032107085 l 4.71236825017487 11.552042646869593 a33.4762215370019,33.4762215370019 0 0,0 -0.5354265365729667,0.2130572688467534 l -4.512820637560037 -11.631446760122415" fill="#ff4806" stroke="none" /><path d="M 107.2578585660854 119.70592522655815 l 10.465019502664415 28.413738010495013 a51.27964895635674,51.27964895635674 0 0,0 -0.8309267370296206,0.29794076494155847 l -9.974373205005058 -28.58966631647653" fill="#b8ff1f" stroke="none" /><path d="M 106.91757812671514 119.82793768551818 l 10.580645766158105 30.327432676722964 a53.12013757115749,53.12013757115749 0 0,0 -0.8659348038640756,0.2937721006226202 l -10.057041229356802 -30.505067764243705" fill="#a1ff22" stroke="none" /><path d="M 106.2309692047433 120.05430185196036 l 8.758975092958064 28.190659375152524 a50.52004269449715,50.52004269449715 0 0,0 -0.8326786223291761,0.25087923834088666 l -8.272421496188642 -28.337253982599133" fill="#c2ff1e" stroke="none" /><path d="M 105.88484417918355 120.15858648285463 l 8.063046110306875 27.62003672158676 a49.7728889943074,49.7728889943074 0 0,0 -0.8244969883099448,0.23301108457420505 l -7.586417953892325 -27.754736599499484" fill="#cbff1d" stroke="none" /><path d="M 105.53697534728816 120.25689768951611 l 4.597291793923671 16.81908689804344 a38.43607685009488,38.43607685009488 0 0,0 -0.6397036285685674,0.1689515424807624 l -4.307097722543606 -16.89572978982779" fill="#ff940d" stroke="none" /><path d="M 105.18746579009965 120.34920634021253 l 5.156089988949859 20.22612646315479 a41.872983870967744,41.872983870967744 0 0,0 -0.6999701640906537,0.17203563614400078 l -4.807166540115994 -20.311883357612825" fill="#ffc712" stroke="none" /><path d="M 104.83641907484287 120.43548508189849 l 4.757437231080311 20.10176042632717 a41.6570564516129,41.6570564516129 0 0,0 -0.699203477847506,0.15913643514700868 l -4.410713603839943 -20.180673595051864" fill="#ffc312" stroke="none" /><path d="M 104.48393922423573 120.51570834832081 l 7.977444766647565 36.49981010286227 a58.36142077798861,58.36142077798861 0 0,0 -0.9832747140173944,0.2060547765233156 l -7.347978591200793 -36.631720860112125" fill="#61ff29" stroke="none" /><path d="M 104.13013068566511 120.58985236759428 l 2.5731517470356384 12.827878491779295 a34.08340844402277,34.08340844402277 0 0,0 -0.5762244668289676,0.11043479049356134 l -2.3519596656349666 -12.870270480621324" fill="#ff5207" stroke="none" /><path d="M 103.7750983002368 120.6578951692458 l 4.482033809733244 24.526350633221035 a45.93251897533207,45.93251897533207 0 0,0 -0.778995898854481,0.1354384222411152 l -4.059188939406713 -24.59986763398316" fill="#ffff18" stroke="none" /><path d="M 103.41894727170886 120.7198165907248 l 4.4690003729356675 27.08344432139368 a48.44967979127135,48.44967979127135 0 0,0 -0.8240232400520625,0.12869548320227805 l -4.002141269275088 -27.156358111943067" fill="#ddff1b" stroke="none" /><path d="M 103.06178313531738 120.77559828337769 l 3.6347055061551083 24.663138483984103 a45.9295303605313,45.9295303605313 0 0,0 -0.7831453163010803,0.1085368048029556 l -3.209631598667198 -24.72204985427966" fill="#ffff18" stroke="none" /><path d="M 102.70371172650421 120.8252237178851 l 5.800859682659824 44.68087313570437 a66.0558586337761,66.0558586337761 0 0,0 -1.1288398195455693,0.13668678150112873 l -5.030892440062874 -44.77410544593084" fill="#34ff5b" stroke="none" /><path d="M 102.34483914955558 120.86867818915974 l 2.7835787992536263 24.773388053846336 a45.92928130929792,45.92928130929792 0 0,0 -0.7864129723883371,0.08151492003669833 l -2.3567332302596866 -24.817632342338793" fill="#ffff18" stroke="none" /><path d="M 101.26447882468166 120.96189622390904 l 1.5014936233545007 24.89100876919938 a45.93625474383302,45.93625474383302 0 0,0 -0.7896921930915056,0.04081806619717353 l -1.0728133618495155 -24.913166642158757" fill="#ffff18" stroke="none" /><line stroke="#e1ed5e" stroke-width="0.3" x1="102.19456741930631" x2="102.32365962044197" y1="184.97166512339345" y2="189.96999836594603" /><path d="M 102.22038585953345 185.97133177190398 a86.0,86.0 0 0,1 -42.740103519485714,-10.115201625700543" fill="none" id="id67" stroke="none" /><text fill="#e1ed5e" style="font-size:6.75px; font-family:Arial;" text-anchor="middle"><textPath startOffset="22.20632615414155" xlink:href="#id67">July</textPath></text><path d="M 100.18074693466247 120.99922214144158 l 0.21524576253790945 25.00730422332441 a46.00823055028463,46.00823055028463 0 0,0 -0.7919853944007126,0.0 l 0.2152457625378922 -25.00730422332441" fill="#feff18" stroke="none" /><path d="M 99.81925306533755 120.99922214144158 l -0.214587682498265 24.930848326770544 a45.931771821631884,45.931771821631884 0 0,0 -0.7905520881423735,-0.013610071131836118 l 0.6436994605333064 -24.923460778359548" fill="#ffff18" stroke="none" /><line stroke="#e1ed5e" stroke-width="0.3" x1="58.666819895761336" x2="56.23545636021788" y1="174.27360380694188" y2="178.64263932499728" /><path d="M 58.180547188652646 175.14741091055294 a86.0,86.0 0 0,1 -31.652253787137756,-30.449443065178592" fill="none" id="id68" stroke="none" /><text fill="#e1ed5e" style="font-size:6.75px; font-family:Arial;" text-anchor="middle"><textPath startOffset="22.20632615414155" xlink:href="#id68">August</textPath></text><line stroke="#e1ed5e" stroke-width="0.3" x1="26.63291911575756" x2="22.317208475507996" y1="142.92168965132927" y2="145.44649492493687" /><path d="M 25.769776987707644 143.4266507060508 a86.0,86.0 0 0,1 -11.730757126820373,-40.83630448921669" fill="none" id="id69" stroke="none" /><text fill="#e1ed5e" style="font-size:6.75px; font-family:Arial;" text-anchor="middle"><textPath startOffset="21.46611528233685" xlink:href="#id69">September</textPath></text><line stroke="#e1ed5e" stroke-width="0.3" x1="15.007084014347285" x2="10.007500721073583" y1="101.09737516637583" y2="101.16192664675087" /><path d="M 14.007167355692545 101.11028546245083 a86.0,86.0 0 0,1 10.666146001902534,-42.60595125391555" fill="none" id="id70" stroke="none" /><text fill="#e1ed5e" style="font-size:6.75px; font-family:Arial;" text-anchor="middle"><textPath startOffset="22.20632615414155" xlink:href="#id70">October</textPath></text><line stroke="#e1ed5e" stroke-width="0.3" x1="26.266209847984243" x2="21.928928074336255" y1="57.711370442889674" y2="55.22380399835377" /><path d="M 25.398753493254645 57.213857153982495 a86.0,86.0 0 0,1 29.58750427330803,-30.492523968695096" fill="none" id="id71" stroke="none" /><text fill="#e1ed5e" style="font-size:6.75px; font-family:Arial;" text-anchor="middle"><textPath startOffset="21.46611528233685" xlink:href="#id71">November</textPath></text><line stroke="#e1ed5e" stroke-width="0.3" x1="56.762969772571076" x2="54.21961505331055" y1="26.818313649435495" y2="22.513508569990535" /><path d="M 56.25429882871897 25.957352633546506 a86.0,86.0 0 0,1 42.265352541879196,-11.944610805530505" fill="none" id="id72" stroke="none" /><text fill="#e1ed5e" style="font-size:6.75px; font-family:Arial;" text-anchor="middle"><textPath startOffset="22.20632615414155" xlink:href="#id72">December</textPath></text></svg>